<svg width="25" height="26" viewBox="0 0 25 26" fill="none" xmlns="http://www.w3.org/2000/svg">
<g clip-path="url(#clip0_2657_3477)">
<path d="M22.7795 0.796387H6.61449C6.20995 0.796387 5.88207 1.12426 5.88207 1.52881V4.69958H2.24609C1.84155 4.69958 1.51367 5.02746 1.51367 5.43201V25.064C1.51367 25.4685 1.84155 25.7964 2.24609 25.7964H18.4111C18.8154 25.7964 19.1435 25.4685 19.1435 25.064V21.8932H22.7795C23.1838 21.8932 23.5119 21.5653 23.5119 21.1608V1.52881C23.5119 1.12426 23.1838 0.796387 22.7795 0.796387ZM22.047 20.4283H19.1435V11.9055C20.005 10.9669 20.5318 9.71629 20.5318 8.34472C20.5318 5.4383 18.1673 3.07395 15.2611 3.07395C13.7678 3.07395 12.4176 3.69842 11.4576 4.69958H7.34692V2.26123H22.047V20.4283ZM2.97852 24.3315V6.16443H10.4628C10.1595 6.82914 9.99031 7.56747 9.99031 8.34472C9.99031 8.60107 10.009 8.85303 10.0447 9.09965H5.33695C4.9324 9.09965 4.60453 9.42771 4.60453 9.83207C4.60453 10.2366 4.9324 10.5645 5.33695 10.5645H10.4813C10.7601 11.1624 11.1475 11.6997 11.6184 12.1505H5.33695C4.93259 12.1505 4.60453 12.4785 4.60453 12.8829C4.60453 13.2874 4.93259 13.6153 5.33695 13.6153H15.3202C15.3269 13.6153 15.3334 13.6145 15.3399 13.6143C16.1816 13.6019 16.976 13.3916 17.6786 13.0273V24.3315H2.97852ZM15.2611 4.5388C17.3595 4.5388 19.0668 6.24606 19.0668 8.34472C19.0668 10.4432 17.3595 12.1505 15.2611 12.1505C13.1624 12.1505 11.4552 10.4432 11.4552 8.34472C11.4552 6.24606 13.1624 4.5388 15.2611 4.5388Z" fill="#CEAE75"/>
<path d="M5.33691 16.6665H15.3202C15.7245 16.6665 16.0526 16.3386 16.0526 15.9341C16.0526 15.5295 15.7245 15.2017 15.3202 15.2017H5.33691C4.93256 15.2017 4.60449 15.5295 4.60449 15.9341C4.60449 16.3386 4.93237 16.6665 5.33691 16.6665Z" fill="#CEAE75"/>
<path d="M9.0036 21.3032H5.33691C4.93256 21.3032 4.60449 21.6313 4.60449 22.0356C4.60449 22.4402 4.93256 22.7681 5.33691 22.7681H9.0036C9.40815 22.7681 9.73602 22.4402 9.73602 22.0356C9.73602 21.6313 9.40815 21.3032 9.0036 21.3032Z" fill="#CEAE75"/>
<path d="M17.5471 6.85227C17.2692 6.55834 16.8055 6.54537 16.5116 6.82327L14.881 8.36536L14.2924 7.78534C14.0044 7.50134 13.5405 7.50477 13.2565 7.79278C12.9727 8.08098 12.9762 8.54466 13.2642 8.82866L14.3563 9.90498C14.4988 10.0454 14.6846 10.1157 14.8705 10.1157C15.0514 10.1157 15.2324 10.049 15.3737 9.91547L17.5181 7.88757C17.812 7.60986 17.825 7.14619 17.5471 6.85227Z" fill="#CEAE75"/>
</g>
<defs>
<clipPath id="clip0_2657_3477">
<rect width="25" height="25" fill="white" transform="translate(0 0.796387)"/>
</clipPath>
</defs>
</svg>
