<svg width="25" height="26" viewBox="0 0 25 26" fill="none" xmlns="http://www.w3.org/2000/svg">
<g clip-path="url(#clip0_2657_8261)">
<path d="M21.577 0.807617H8.22819C8.02735 0.807617 7.8349 0.887344 7.6928 1.02944L2.95571 5.76653C2.81361 5.90844 2.73389 6.10108 2.73389 6.30193V25.0504C2.73389 25.4687 3.07282 25.8076 3.4911 25.8076H21.577C21.9951 25.8076 22.3342 25.4687 22.3342 25.0504V1.56483C22.3342 1.14655 21.9951 0.807617 21.577 0.807617ZM7.47098 3.39284V5.54471H5.31911L7.47098 3.39284ZM20.8197 24.2932H4.24832V7.05914H8.22819C8.64629 7.05914 8.98541 6.72002 8.98541 6.30193V2.32205H20.8197V24.2932Z" fill="#CEAE75"/>
<path d="M8.48866 8.92432C8.07057 8.92432 7.73145 9.26344 7.73145 9.68153C7.73145 10.0998 8.07057 10.4388 8.48866 10.4388H16.58C16.9981 10.4388 17.3372 10.0998 17.3372 9.68153C17.3372 9.26344 16.9981 8.92432 16.58 8.92432H8.48866Z" fill="#CEAE75"/>
<path d="M16.58 11.7471H8.48866C8.07057 11.7471 7.73145 12.0862 7.73145 12.5043C7.73145 12.9226 8.07057 13.2615 8.48866 13.2615H16.58C16.9981 13.2615 17.3372 12.9226 17.3372 12.5043C17.3372 12.0862 16.9981 11.7471 16.58 11.7471Z" fill="#CEAE75"/>
<path d="M16.58 14.5703H8.48866C8.07057 14.5703 7.73145 14.9092 7.73145 15.3273C7.73145 15.7456 8.07057 16.0846 8.48866 16.0846H16.58C16.9981 16.0846 17.3372 15.7456 17.3372 15.3273C17.3372 14.9092 16.9981 14.5703 16.58 14.5703Z" fill="#CEAE75"/>
<path d="M14.5861 17.3926H8.48866C8.07057 17.3926 7.73145 17.7315 7.73145 18.1498C7.73145 18.5679 8.07057 18.9068 8.48866 18.9068H14.5861C15.0042 18.9068 15.3433 18.5679 15.3433 18.1498C15.3433 17.7315 15.0042 17.3926 14.5861 17.3926Z" fill="#CEAE75"/>
<circle cx="20.5002" cy="21.3081" r="4.5" fill="#CEAE75"/>
<path d="M22.3205 20.6279H21.1799V19.4874C21.1799 19.1121 20.8756 18.8076 20.5002 18.8076C20.1247 18.8076 19.8204 19.1121 19.8204 19.4874V20.6279H18.68C18.3045 20.6279 18.0002 20.9322 18.0002 21.3076C18.0002 21.6831 18.3045 21.9874 18.68 21.9874H19.8204V23.1279C19.8204 23.5031 20.1247 23.8076 20.5002 23.8076C20.8756 23.8076 21.1799 23.5031 21.1799 23.1279V21.9874H22.3205C22.6959 21.9874 23.0002 21.6831 23.0002 21.3076C23.0002 20.9322 22.6959 20.6279 22.3205 20.6279Z" fill="#0F0F0F"/>
</g>
<defs>
<clipPath id="clip0_2657_8261">
<rect width="25" height="25" fill="white" transform="translate(0 0.808105)"/>
</clipPath>
</defs>
</svg>
