<svg width="21" height="21" viewBox="0 0 21 21" fill="none" xmlns="http://www.w3.org/2000/svg">
<path d="M20.5338 8.67292L18.125 8.08053C17.9802 7.6239 17.7939 7.1811 17.5692 6.75753C17.9309 6.1555 18.6909 4.88841 18.6909 4.88841C18.8363 4.64629 18.7979 4.33625 18.5984 4.1368L16.8584 2.39683C16.659 2.19676 16.3496 2.15832 16.1068 2.3043L14.2347 3.42604C13.8135 3.20312 13.3731 3.01867 12.9195 2.87507L12.3271 0.466266C12.2586 0.192281 12.0129 0 11.7305 0H9.26953C8.98714 0 8.7408 0.192281 8.67292 0.466225C8.67292 0.466225 8.26256 2.14745 8.0811 2.87446C7.59745 3.02765 7.13003 3.22654 6.68481 3.46927L4.74358 2.3043C4.50085 2.16009 4.19204 2.19737 3.99197 2.39683L2.252 4.1368C2.05254 4.33625 2.01407 4.64629 2.15947 4.88841L3.35992 6.89333C3.16645 7.27486 3.00423 7.67197 2.87507 8.07872L0.466266 8.67292C0.192281 8.74141 0 8.98714 0 9.26953V11.7305C0 12.0129 0.192281 12.2592 0.466225 12.3271L2.87565 12.9195C3.02166 13.3827 3.21148 13.8327 3.44162 14.2647L2.36738 16.0551C2.22198 16.2972 2.26045 16.6073 2.45991 16.8067L4.19988 18.5467C4.39876 18.7456 4.70876 18.7834 4.95149 18.6392C4.95149 18.6392 6.15612 17.9171 6.74613 17.5638C7.17331 17.7915 7.62029 17.9795 8.08114 18.1255L8.67296 20.5337C8.7408 20.8078 8.98714 21 9.26953 21H11.7305C12.0129 21 12.2586 20.8077 12.3271 20.5338L12.9189 18.1255C13.393 17.9753 13.8495 17.7813 14.2839 17.5457C14.8901 17.9092 16.1068 18.6392 16.1068 18.6392C16.3489 18.784 16.6589 18.7468 16.8584 18.5467L18.5984 16.8067C18.7978 16.6073 18.8363 16.2972 18.6909 16.0551L17.5848 14.2124C17.8029 13.7984 17.9838 13.3653 18.1249 12.9195L20.5337 12.3271C20.8078 12.2586 21 12.0129 21 11.7305V9.26953C21 8.98714 20.8078 8.74141 20.5338 8.67292ZM10.5 14.8066C8.12556 14.8066 6.19336 12.8744 6.19336 10.5C6.19336 8.12556 8.12556 6.19336 10.5 6.19336C12.8744 6.19336 14.8066 8.12556 14.8066 10.5C14.8066 12.8744 12.8744 14.8066 10.5 14.8066Z" fill="#CEAE75"/>
</svg>
