<svg width="170" height="51" viewBox="0 0 170 51" fill="none" xmlns="http://www.w3.org/2000/svg">
<path d="M75.8433 11.3188H86.3877V4.77782C86.3877 3.62457 86.3129 2.86577 86.1699 2.50054C86.0554 2.22591 85.8207 1.98714 85.4601 1.78707C84.9793 1.51905 84.4701 1.38787 83.9316 1.38787H83.1243V0.771626H92.8783V1.38787H92.071C91.5325 1.38787 91.0233 1.51341 90.5425 1.77011C90.1819 1.94659 89.9359 2.21554 89.81 2.5751C89.6784 2.93467 89.615 3.67079 89.615 4.77874V19.4718C89.615 20.6194 89.6898 21.3782 89.8327 21.7434C89.9472 22.0228 90.1763 22.2625 90.5255 22.4625C91.0176 22.7306 91.5335 22.8627 92.071 22.8627H92.8783V23.479H83.1243V22.8627H83.9316C84.8648 22.8627 85.5405 22.5881 85.9693 22.0464C86.2494 21.6868 86.3877 20.8308 86.3877 19.4718V12.5542H75.8433V19.4718C75.8433 20.6194 75.9181 21.3782 76.061 21.7434C76.1698 22.0228 76.4045 22.2625 76.7651 22.4625C77.2459 22.7306 77.7494 22.8627 78.2879 22.8627H79.1066V23.479H69.3525V22.8627H70.1599C71.1044 22.8627 71.7859 22.5881 72.2146 22.0464C72.4834 21.6868 72.6159 20.8308 72.6159 19.4718V4.77874C72.6159 3.62549 72.5411 2.86674 72.3982 2.50151C72.2837 2.22688 72.0547 1.98811 71.7054 1.78804C71.2133 1.52001 70.6974 1.38884 70.1599 1.38884H69.3525V0.772548H79.1066V1.38884H78.2879C77.7494 1.38884 77.2459 1.51434 76.7651 1.77103C76.4159 1.94751 76.1755 2.2165 76.0439 2.57607C75.9124 2.93563 75.8433 3.67176 75.8433 4.77971V11.3207V11.3188ZM109.309 15.9083H100.488L98.9649 19.4643C98.5873 20.3429 98.3924 21.0054 98.3924 21.4395C98.3924 21.7821 98.558 22.0907 98.8902 22.3531C99.2167 22.6098 99.9322 22.7815 101.025 22.8608V23.4771H93.8466V22.8608C94.7968 22.6947 95.4091 22.4786 95.6902 22.2097C96.2628 21.6727 96.8922 20.5826 97.585 18.9452L105.594 0.257269H106.161L114.078 19.1453C114.713 20.6638 115.291 21.6453 115.813 22.1021C116.333 22.5532 117.054 22.8042 117.988 22.8608V23.4771H109.012V22.8608C109.917 22.8155 110.53 22.6664 110.85 22.4097C111.17 22.153 111.325 21.8387 111.325 21.4678C111.325 20.9771 111.101 20.2004 110.655 19.1387L109.31 15.9083H109.309ZM108.794 14.6758L104.959 5.51392L101.021 14.6758H108.795H108.794ZM141.606 23.4771H135.51L127.777 12.86C127.221 12.8826 126.769 12.894 126.42 12.894C126.278 12.894 126.122 12.8883 125.962 12.8827C125.796 12.877 125.63 12.8713 125.452 12.86V19.4699C125.452 20.8969 125.607 21.7821 125.922 22.1247C126.346 22.6154 126.981 22.8608 127.828 22.8608H128.715V23.4771H118.961V22.8608H119.813C120.775 22.8608 121.462 22.5466 121.875 21.9246C122.109 21.5821 122.224 20.76 122.224 19.4699V4.77686C122.224 3.34992 122.07 2.46468 121.754 2.12305C121.319 1.6323 120.673 1.38695 119.814 1.38695H118.961V0.770659H127.25C129.672 0.770659 131.453 0.947144 132.597 1.29538C133.748 1.64929 134.721 2.3005 135.517 3.24236C136.318 4.18421 136.719 5.30818 136.719 6.61526C136.719 8.01388 136.261 9.22378 135.35 10.2515C134.434 11.2793 133.026 12.004 131.108 12.4325L135.82 18.9339C136.896 20.4298 137.818 21.4282 138.59 21.919C139.357 22.4154 140.364 22.724 141.606 22.8608V23.4771ZM125.451 11.7983C125.663 11.7983 125.846 11.7983 126.001 11.8039C126.155 11.8096 126.281 11.8153 126.379 11.8153C128.525 11.8153 130.146 11.3472 131.233 10.411C132.326 9.46915 132.87 8.27627 132.87 6.82668C132.87 5.41107 132.429 4.25778 131.554 3.36783C130.673 2.48355 129.505 2.03812 128.057 2.03812C127.415 2.03812 126.545 2.14099 125.452 2.34672V11.7992L125.451 11.7983ZM151.899 22.8608V23.4771H142.144V22.8608H142.951C143.896 22.8608 144.577 22.5862 145.006 22.0445C145.275 21.6849 145.406 20.8289 145.406 19.4699V4.77686C145.406 3.62927 145.332 2.87052 145.188 2.50529C145.074 2.22594 144.845 1.98622 144.497 1.78615C144.004 1.51812 143.489 1.38695 142.951 1.38695H142.144V0.770659H151.899V1.38695H151.08C150.153 1.38695 149.477 1.66062 149.054 2.20327C148.774 2.56284 148.636 3.41884 148.636 4.77782V19.4709C148.636 20.6185 148.711 21.3773 148.854 21.7425C148.963 22.0218 149.198 22.2615 149.558 22.4616C150.039 22.7296 150.543 22.8617 151.081 22.8617H151.9L151.899 22.8608ZM168.488 0.256348V8.09976H167.87C167.669 6.59261 167.309 5.39407 166.788 4.50318C166.268 3.61229 165.523 2.90448 164.556 2.37976C163.594 1.85504 162.597 1.59173 161.568 1.59173C160.4 1.59173 159.438 1.94563 158.676 2.65344C157.915 3.36124 157.532 4.17191 157.532 5.07412C157.532 5.76494 157.772 6.3982 158.253 6.96916C158.952 7.80249 160.6 8.92176 163.211 10.3138C165.34 11.4557 166.794 12.3287 167.573 12.9336C168.352 13.5442 168.953 14.2577 169.37 15.0853C169.789 15.913 170 16.7746 170 17.6825C170 19.4001 169.33 20.879 167.996 22.1238C166.657 23.3685 164.933 23.9905 162.832 23.9905C162.168 23.9905 161.55 23.9386 160.966 23.8366C160.617 23.7791 159.901 23.5743 158.808 23.2204C157.72 22.8665 157.028 22.689 156.735 22.689C156.455 22.689 156.232 22.7749 156.071 22.9401C155.911 23.1109 155.791 23.4591 155.71 23.9905H155.092V16.2159H155.71C156.003 17.8429 156.392 19.0651 156.884 19.8691C157.376 20.6798 158.132 21.3527 159.145 21.884C160.157 22.421 161.269 22.689 162.476 22.689C163.873 22.689 164.983 22.3181 165.791 21.582C166.604 20.8393 167.011 19.9664 167.011 18.9622C167.011 18.4026 166.856 17.8382 166.553 17.2673C166.243 16.6963 165.768 16.1659 165.122 15.6695C164.686 15.3326 163.49 14.6248 161.538 13.5404C159.586 12.4617 158.196 11.5944 157.371 10.9489C156.547 10.3043 155.916 9.58429 155.493 8.80853C155.064 8.02617 154.852 7.16451 154.852 6.22832C154.852 4.60131 155.481 3.19702 156.735 2.02111C157.989 0.845214 159.591 0.257269 161.527 0.257269C162.74 0.257269 164.023 0.554559 165.379 1.14157C166.008 1.42091 166.449 1.55869 166.707 1.55869C166.999 1.55869 167.24 1.47284 167.422 1.30202C167.605 1.12554 167.755 0.782933 167.869 0.257269H168.487L168.488 0.256348Z" fill="#CEAE75"/>
<path d="M78.2872 28.5531L78.4008 31.0804H78.0998C78.0401 30.6369 77.9616 30.3188 77.8613 30.1291C77.6956 29.8234 77.4789 29.5968 77.2054 29.4534C76.9319 29.3071 76.5741 29.2345 76.1293 29.2345H74.6112V37.4412C74.6112 38.1037 74.6822 38.5171 74.8251 38.6822C75.0257 38.904 75.3352 39.0144 75.7526 39.0144H76.1245V39.306H71.5381V39.0144H71.9251C72.3861 39.0144 72.7117 38.8767 72.9066 38.6011C73.023 38.4312 73.0827 38.0443 73.0827 37.4412V29.2345H71.7898C71.2854 29.2345 70.9276 29.2722 70.7165 29.3458C70.4402 29.4458 70.2074 29.6374 70.0095 29.9243C69.8146 30.2084 69.6972 30.5953 69.6594 31.0813H69.3584L69.472 28.554H78.2872V28.5531ZM94.9494 39.306H92.0627L88.4009 34.2778C88.1378 34.2891 87.9239 34.2938 87.7583 34.2938C87.6911 34.2938 87.6173 34.291 87.5415 34.2882C87.463 34.2853 87.3844 34.2825 87.3002 34.2768V37.4073C87.3002 38.083 87.3731 38.502 87.5226 38.6643C87.7232 38.8965 88.0242 39.0125 88.4255 39.0125H88.8457V39.3041H84.2261V39.0125H84.6302C85.0855 39.0125 85.4111 38.8644 85.606 38.569C85.7168 38.4066 85.7717 38.0179 85.7717 37.4073V30.45C85.7717 29.7743 85.6978 29.3553 85.5492 29.1929C85.3429 28.9608 85.0372 28.8447 84.6302 28.8447H84.2261V28.5531H88.151C89.2981 28.5531 90.1405 28.637 90.6828 28.8013C91.2279 28.9692 91.6889 29.2769 92.0655 29.7233C92.4451 30.1687 92.6353 30.702 92.6353 31.3211C92.6353 31.9836 92.4186 32.5564 91.987 33.0425C91.5535 33.5285 90.8863 33.872 89.9786 34.0749L92.2094 37.1534C92.7195 37.8612 93.1558 38.3349 93.5212 38.5671C93.8846 38.8021 94.3616 38.9484 94.9494 39.0125V39.3041V39.306ZM87.2992 33.7758C87.3996 33.7758 87.4866 33.7757 87.5595 33.7786C87.6333 33.7814 87.693 33.7842 87.7384 33.7842C88.7549 33.7842 89.5224 33.5625 90.0373 33.1198C90.555 32.6734 90.8125 32.1091 90.8125 31.422C90.8125 30.752 90.6042 30.2056 90.1887 29.7837C89.7713 29.3647 89.2186 29.1542 88.5324 29.1542C88.2286 29.1542 87.817 29.2033 87.2992 29.3005V33.7767V33.7758ZM107.393 35.7217H103.216L102.494 37.4063C102.316 37.8225 102.224 38.1358 102.224 38.3416C102.224 38.5039 102.302 38.6492 102.459 38.7738C102.614 38.8955 102.953 38.9767 103.471 39.0144V39.306H100.072V39.0144C100.522 38.9361 100.812 38.8333 100.944 38.7068C101.215 38.4529 101.514 37.9367 101.841 37.1609L105.634 28.3105H105.902L109.651 37.2553C109.951 37.9744 110.225 38.4397 110.472 38.6558C110.719 38.8691 111.061 38.988 111.503 39.0154V39.307H107.252V39.0154C107.68 38.9937 107.971 38.9238 108.122 38.8021C108.273 38.6804 108.347 38.5312 108.347 38.3557C108.347 38.1235 108.241 37.7555 108.03 37.2525L107.393 35.7227V35.7217ZM107.149 35.1375L105.333 30.7992L103.468 35.1375H107.149ZM126.276 28.5531V28.8447C125.896 28.9145 125.607 29.0363 125.411 29.2118C125.132 29.4713 124.882 29.8715 124.665 30.4094L120.922 39.5486H120.629L116.598 30.2876C116.392 29.8092 116.246 29.5166 116.162 29.4119C116.029 29.2477 115.867 29.1174 115.671 29.023C115.478 28.9315 115.218 28.8711 114.89 28.8447V28.5531H119.287V28.8447C118.788 28.8938 118.466 28.9768 118.316 29.0986C118.169 29.2203 118.094 29.3741 118.094 29.5657C118.094 29.8281 118.216 30.2414 118.46 30.8011L121.201 37.0958L123.746 30.8794C123.995 30.2659 124.12 29.8413 124.12 29.6034C124.12 29.4524 124.041 29.3034 123.89 29.1656C123.736 29.025 123.475 28.9249 123.112 28.8683C123.084 28.8626 123.038 28.8551 122.976 28.8437V28.5521H126.276V28.5531ZM135.025 29.1372V33.3869H137.399C138.015 33.3869 138.424 33.2944 138.63 33.1114C138.906 32.8679 139.058 32.4404 139.091 31.8298H139.383V35.5764H139.091C139.018 35.0517 138.942 34.7147 138.868 34.5656C138.774 34.3816 138.616 34.2353 138.399 34.1306C138.182 34.0258 137.849 33.9711 137.398 33.9711H135.024V37.5177C135.024 37.9933 135.046 38.283 135.086 38.385C135.13 38.4878 135.203 38.5718 135.309 38.6313C135.414 38.6936 135.617 38.7238 135.913 38.7238H137.738C138.346 38.7238 138.788 38.6803 139.064 38.5963C139.338 38.5123 139.604 38.3444 139.855 38.0962C140.183 37.7696 140.52 37.2742 140.863 36.6145H141.189L140.26 39.307H131.951V39.0154H132.333C132.588 39.0154 132.829 38.9531 133.057 38.8323C133.228 38.7483 133.345 38.6209 133.404 38.451C133.467 38.2802 133.497 37.9348 133.497 37.4101V30.4198C133.497 29.7384 133.429 29.3194 133.291 29.1627C133.098 28.9513 132.781 28.8466 132.334 28.8466H131.952V28.555H140.262L140.376 30.9228H140.066C139.956 30.3528 139.834 29.9602 139.698 29.7469C139.563 29.5336 139.362 29.3713 139.099 29.2581C138.888 29.1797 138.513 29.1391 137.98 29.1391H135.025V29.1372ZM156.041 36.338L156.301 36.3946L155.373 39.306H147.03V39.0144H147.434C147.889 39.0144 148.214 38.8682 148.409 38.5737C148.52 38.4057 148.575 38.0169 148.575 37.4092V30.4519C148.575 29.7818 148.501 29.3628 148.353 29.1948C148.146 28.9627 147.841 28.8466 147.434 28.8466H147.03V28.555H151.909V28.8466C151.338 28.8409 150.936 28.8919 150.704 29.0032C150.473 29.1118 150.316 29.2514 150.232 29.4166C150.148 29.5846 150.104 29.9847 150.104 30.6142V37.3931C150.104 37.8338 150.148 38.1339 150.232 38.2982C150.295 38.4114 150.395 38.4925 150.528 38.5473C150.657 38.5982 151.073 38.6256 151.769 38.6256H152.555C153.385 38.6256 153.964 38.5662 154.298 38.4444C154.631 38.3227 154.938 38.1066 155.214 37.7989C155.488 37.4903 155.764 37.0043 156.042 36.3389L156.041 36.338ZM169.249 28.3096V32.0232H168.957C168.862 31.3097 168.691 30.7425 168.445 30.3207C168.198 29.8988 167.846 29.5638 167.388 29.3156C166.932 29.0665 166.46 28.9428 165.973 28.9428C165.42 28.9428 164.965 29.1108 164.604 29.4458C164.243 29.7809 164.062 30.165 164.062 30.5916C164.062 30.919 164.175 31.2191 164.403 31.489C164.734 31.8835 165.515 32.4139 166.751 33.0726C167.759 33.6134 168.448 34.0268 168.816 34.3137C169.185 34.6024 169.47 34.9413 169.668 35.3329C169.865 35.7246 169.966 36.1332 169.966 36.5626C169.966 37.3761 169.649 38.0763 169.017 38.6652C168.383 39.2541 167.567 39.5495 166.573 39.5495C166.258 39.5495 165.965 39.525 165.689 39.4759C165.523 39.4495 165.184 39.3523 164.667 39.1843C164.152 39.0163 163.823 38.9323 163.685 38.9323C163.552 38.9323 163.447 38.9729 163.371 39.0513C163.295 39.1324 163.237 39.2976 163.2 39.5486H162.908V35.8671H163.2C163.339 36.6381 163.523 37.2157 163.756 37.5969C163.989 37.981 164.347 38.3 164.826 38.551C165.306 38.8049 165.833 38.9323 166.404 38.9323C167.066 38.9323 167.591 38.7568 167.973 38.4076C168.359 38.0565 168.551 37.6422 168.551 37.1666C168.551 36.9023 168.478 36.6343 168.334 36.3644C168.188 36.0936 167.963 35.8425 167.656 35.6075C167.45 35.448 166.883 35.113 165.959 34.5987C165.035 34.0881 164.376 33.6766 163.986 33.3718C163.596 33.066 163.297 32.7263 163.097 32.3583C162.894 31.9883 162.793 31.5796 162.793 31.137C162.793 30.3669 163.092 29.7016 163.686 29.1448C164.279 28.588 165.038 28.3096 165.955 28.3096C166.529 28.3096 167.137 28.4502 167.779 28.7286C168.078 28.8607 168.286 28.9259 168.409 28.9259C168.547 28.9259 168.661 28.8853 168.748 28.8041C168.835 28.7201 168.905 28.5578 168.96 28.3096H169.252H169.249Z" fill="white"/>
<path d="M106.342 50.8274V51.0001C105.895 50.7765 105.52 50.5131 105.22 50.2121C104.794 49.7846 104.463 49.2797 104.233 48.6974C104.001 48.1151 103.886 47.5121 103.886 46.8864C103.886 45.9719 104.113 45.1357 104.566 44.3826C105.02 43.6276 105.612 43.0888 106.342 42.7632V42.9538C105.976 43.1548 105.676 43.4285 105.442 43.7758C105.207 44.124 105.031 44.5638 104.915 45.097C104.798 45.6312 104.741 46.1889 104.741 46.7693C104.741 47.3997 104.79 47.9726 104.888 48.4888C104.966 48.8956 105.059 49.2221 105.168 49.4684C105.279 49.7148 105.427 49.9507 105.612 50.1781C105.798 50.4046 106.042 50.6226 106.341 50.8284L106.342 50.8274ZM108.027 46.2484V48.0066C108.027 48.3841 108.068 48.6191 108.151 48.7097C108.264 48.8399 108.433 48.905 108.661 48.905H108.892V49.0683H106.308V48.905H106.535C106.789 48.905 106.973 48.822 107.082 48.6568C107.141 48.5662 107.171 48.3482 107.171 48.0066V44.1155C107.171 43.7371 107.131 43.5031 107.051 43.4125C106.934 43.2832 106.763 43.218 106.534 43.218H106.307V43.0548H108.517C109.056 43.0548 109.481 43.1104 109.793 43.2209C110.104 43.3313 110.367 43.5181 110.58 43.7814C110.794 44.0447 110.9 44.3562 110.9 44.7158C110.9 45.2065 110.738 45.6057 110.413 45.9134C110.089 46.2201 109.632 46.3749 109.038 46.3749C108.892 46.3749 108.736 46.3645 108.568 46.3437C108.398 46.3239 108.218 46.2927 108.025 46.2503L108.027 46.2484ZM108.027 45.9945C108.184 46.0247 108.323 46.0474 108.445 46.0606C108.564 46.0757 108.669 46.0832 108.754 46.0832C109.062 46.0832 109.326 45.9643 109.548 45.7265C109.771 45.4887 109.883 45.1819 109.883 44.8054C109.883 44.5449 109.83 44.3033 109.724 44.0816C109.618 43.8598 109.467 43.6927 109.272 43.5823C109.076 43.4719 108.855 43.4162 108.608 43.4162C108.456 43.4162 108.263 43.4445 108.027 43.5012V45.9936V45.9945ZM110.921 45.0046H112.83V45.1678H112.706C112.59 45.1678 112.502 45.1971 112.442 45.2528C112.379 45.3084 112.349 45.3839 112.349 45.4783C112.349 45.5812 112.381 45.7038 112.444 45.8454L113.394 48.0878L114.344 45.7624C114.412 45.5963 114.445 45.4707 114.445 45.3858C114.445 45.3433 114.435 45.3103 114.41 45.2829C114.377 45.2395 114.336 45.2084 114.286 45.1923C114.236 45.1754 114.133 45.1678 113.98 45.1678V45.0046H115.302V45.1678C115.147 45.1801 115.041 45.2112 114.982 45.2622C114.877 45.3509 114.785 45.5009 114.702 45.7095L113.271 49.1862H113.081L111.631 45.7671C111.565 45.6047 111.503 45.4906 111.444 45.4207C111.385 45.3509 111.309 45.2924 111.218 45.2442C111.168 45.2169 111.067 45.1933 110.921 45.1687V45.0055V45.0046ZM116.484 43.671V45.0046H117.434V45.3037L116.484 45.3122V47.9443C116.484 48.2076 116.522 48.3859 116.597 48.4765C116.671 48.569 116.769 48.6144 116.887 48.6144C116.986 48.6144 117.08 48.5842 117.172 48.5219C117.263 48.4615 117.335 48.3709 117.384 48.251H117.557C117.454 48.5426 117.306 48.7616 117.117 48.9097C116.926 49.057 116.73 49.1306 116.528 49.1306C116.392 49.1306 116.259 49.0928 116.128 49.0173C115.997 48.9418 115.902 48.8323 115.84 48.6927C115.778 48.552 115.746 48.336 115.746 48.0425V45.3037H115.1V45.1631C115.264 45.098 115.431 44.9894 115.602 44.8365C115.773 44.6827 115.925 44.4996 116.06 44.2863C116.128 44.174 116.224 43.9692 116.347 43.671H116.483H116.484ZM118.294 48.2066C118.433 48.2066 118.549 48.2548 118.645 48.3501C118.738 48.4454 118.786 48.5605 118.786 48.6964C118.786 48.8314 118.737 48.9475 118.642 49.0428C118.546 49.1381 118.432 49.1862 118.294 49.1862C118.159 49.1862 118.043 49.1381 117.947 49.0428C117.851 48.9475 117.803 48.8314 117.803 48.6964C117.803 48.5587 117.852 48.4426 117.947 48.3473C118.043 48.2539 118.159 48.2066 118.294 48.2066ZM119.251 42.9547V42.7641C119.702 42.9849 120.078 43.2463 120.378 43.5474C120.801 43.9777 121.129 44.4845 121.36 45.0649C121.592 45.6434 121.707 46.2484 121.707 46.8769C121.707 47.7914 121.481 48.6275 121.028 49.3806C120.575 50.1356 119.983 50.6745 119.25 51.0001V50.8274C119.616 50.6236 119.918 50.3499 120.154 50.0035C120.391 49.6572 120.565 49.2155 120.68 48.6804C120.794 48.1453 120.852 47.5895 120.852 47.0081C120.852 46.3796 120.803 45.8067 120.704 45.2877C120.63 44.8809 120.538 44.5563 120.425 44.3109C120.314 44.0665 120.166 43.8305 119.981 43.6031C119.797 43.3766 119.553 43.1586 119.25 42.9528L119.251 42.9547ZM129.196 47.4082L129.341 47.4403L128.823 49.0683H124.156V48.905H124.382C124.637 48.905 124.818 48.8229 124.927 48.6587C124.99 48.5653 125.02 48.3473 125.02 48.0075V44.1165C125.02 43.7409 124.979 43.5068 124.896 43.4134C124.78 43.2841 124.609 43.219 124.382 43.219H124.156V43.0557H126.884V43.219C126.564 43.2152 126.34 43.2445 126.21 43.3067C126.081 43.3671 125.993 43.4455 125.946 43.538C125.898 43.6314 125.874 43.856 125.874 44.208V47.999C125.874 48.2454 125.898 48.4133 125.946 48.5058C125.981 48.569 126.036 48.6143 126.11 48.6455C126.183 48.6738 126.415 48.6889 126.805 48.6889H127.245C127.709 48.6889 128.033 48.6559 128.22 48.5879C128.406 48.52 128.578 48.3992 128.732 48.2265C128.885 48.0538 129.039 47.782 129.195 47.4101L129.196 47.4082ZM130.624 43.671V45.0046H131.574V45.3037L130.624 45.3122V47.9443C130.624 48.2076 130.662 48.3859 130.737 48.4765C130.811 48.569 130.909 48.6144 131.027 48.6144C131.125 48.6144 131.22 48.5842 131.312 48.5219C131.403 48.4615 131.475 48.3709 131.524 48.251H131.697C131.594 48.5426 131.446 48.7616 131.257 48.9097C131.066 49.057 130.87 49.1306 130.668 49.1306C130.532 49.1306 130.399 49.0928 130.268 49.0173C130.137 48.9418 130.042 48.8323 129.98 48.6927C129.918 48.552 129.886 48.336 129.886 48.0425V45.3037H129.24V45.1631C129.404 45.098 129.57 44.9894 129.742 44.8365C129.913 44.6827 130.064 44.4996 130.2 44.2863C130.268 44.174 130.364 43.9692 130.487 43.671H130.623H130.624ZM134.454 48.5993C134.255 48.8088 134.061 48.9588 133.872 49.0494C133.683 49.14 133.477 49.1853 133.26 49.1853C132.816 49.1853 132.427 49.0013 132.096 48.6304C131.763 48.2595 131.599 47.7839 131.599 47.2035C131.599 46.6231 131.782 46.0908 132.149 45.6085C132.517 45.1263 132.988 44.8856 133.566 44.8856C133.924 44.8856 134.221 45.0007 134.455 45.2282V44.477C134.455 44.0155 134.445 43.7333 134.422 43.6276C134.399 43.5219 134.364 43.4492 134.317 43.4115C134.269 43.3737 134.209 43.3539 134.138 43.3539C134.06 43.3539 133.959 43.3785 133.83 43.4247L133.773 43.2614L134.992 42.7622H135.191V47.4516C135.191 47.9254 135.202 48.2133 135.224 48.318C135.247 48.4209 135.282 48.4945 135.332 48.536C135.381 48.5766 135.438 48.5983 135.504 48.5983C135.584 48.5983 135.69 48.5719 135.825 48.5228L135.874 48.6861L134.659 49.1843H134.454V48.5983V48.5993ZM134.454 48.2897V46.2106C134.436 46.0077 134.383 45.8237 134.293 45.6585C134.205 45.4924 134.087 45.3688 133.94 45.2839C133.792 45.2009 133.651 45.1584 133.51 45.1584C133.25 45.1584 133.016 45.2744 132.812 45.5075C132.542 45.8142 132.407 46.2616 132.407 46.8514C132.407 47.4469 132.538 47.9037 132.798 48.2208C133.059 48.5369 133.35 48.6955 133.669 48.6955C133.941 48.6955 134.201 48.5596 134.453 48.2888L134.454 48.2897ZM136.603 48.2066C136.742 48.2066 136.858 48.2548 136.954 48.3501C137.047 48.4454 137.095 48.5605 137.095 48.6964C137.095 48.8314 137.046 48.9475 136.951 49.0428C136.855 49.1381 136.741 49.1862 136.603 49.1862C136.468 49.1862 136.352 49.1381 136.256 49.0428C136.161 48.9475 136.112 48.8314 136.112 48.6964C136.112 48.5587 136.161 48.4426 136.256 48.3473C136.352 48.2539 136.468 48.2066 136.603 48.2066Z" fill="white"/>
<path fill-rule="evenodd" clip-rule="evenodd" d="M10.9225 12.7483C11.6149 13.0077 11.3247 13.239 12.6723 13.4421C15.7079 13.8977 14.2668 13.7684 19.5073 9.7943C20.907 8.73284 21.6946 8.70291 21.9433 7.71268C19.3777 6.85261 14.6161 10.0467 13.0551 11.1495C12.2966 10.8337 13.0515 10.9015 12.1652 10.7995C11.6228 11.3086 10.5874 11.7686 9.89683 12.2276C3.18702 16.6828 -3.95141 24.667 2.58201 32.9441C3.11118 33.6134 3.82378 34.2835 4.4773 34.7891C7.23954 36.9252 5.23578 35.4548 6.2262 36.6086C6.81093 37.2893 8.00859 37.5875 8.88436 37.54C9.84832 37.4881 10.2743 38.101 11.3132 38.4721C12.1714 38.7799 13.1441 39.1352 14.0958 39.465C15.1479 39.83 14.8295 39.5538 15.5906 39.5547C15.9417 39.5547 16.5176 39.7315 16.9806 39.7948C17.0229 41.2274 18.3053 41.2608 20.9379 42.4313C24.0335 43.8085 23.1665 42.0813 24.7787 40.8853L27.04 40.96C26.5726 42.2387 24.9754 43.0205 24.7725 44.1848C25.262 45.2648 26.6819 45.635 27.8267 46.2436C29.475 47.1177 29.9839 47.0245 31.4771 45.9428C32.5204 45.1865 33.308 44.5876 34.2155 43.7689C36.296 41.8913 35.8524 41.8412 36.0049 40.749L40.4058 40.2196C41.682 41.0339 42.9608 43.2237 44.3843 41.3822C46.2919 38.9145 44.6083 39.5415 48.1175 38.5346C49.8523 38.0368 51.4142 37.4485 53.2627 37.044C55.2639 36.606 56.4519 35.614 56.8276 35.4856C57.3073 35.3203 57.5208 35.5665 58.072 35.6193C59.1056 35.0917 57.8471 35.4241 59.073 35.0107C59.5572 34.8472 59.5404 35.0178 59.917 34.513C60.3077 33.9906 59.9091 34.2211 60.4876 33.7347C60.6702 33.5808 61.1006 33.3258 61.3131 33.1869C62.2003 32.6073 64.3549 31.6927 63.8408 30.465C62.8415 29.9347 61.0379 30.5028 60.3633 30.8871L59.5272 31.413C59.4963 31.4324 59.4531 31.4579 59.4222 31.4772C56.8196 33.0593 56.9793 33.4849 54.5054 33.4322C53.4568 33.4093 51.7202 33.419 51.446 34.4743C50.5702 34.2606 50.4697 33.8455 49.578 34.3916C49.1088 35.4091 49.7782 35.3739 50.1592 36.0168L47.1809 36.8083C47.4596 35.6052 48.704 33.6811 47.7771 32.6038C47.5372 32.3241 46.5741 31.7129 46.3131 31.5186C43.9909 29.7888 44.3993 31.771 43.0834 34.3327C42.7386 35.0046 41.6326 36.8012 41.4156 37.5487L46.792 36.9684C43.8436 37.5927 41.4139 38.2154 38.2142 38.6085C29.4592 39.6831 19.8989 39.2197 12.1061 35.6255C0.52356 30.2821 0.460941 21.8362 8.26877 15.018C8.92229 14.4473 10.5512 13.253 10.9217 12.7509L10.9225 12.7483ZM32.0521 38.2206C31.4444 37.1029 29.4927 36.628 29.0032 38.2127L32.0521 38.2206ZM22.5209 6.91858C22.7926 7.1402 22.6277 7.18154 23.2424 7.17275L28.3788 6.2801C27.2261 6.18337 23.1762 6.15876 22.5201 6.91858H22.5209ZM47.1968 18.7696C47.1536 17.5622 43.4309 13.078 42.4405 12.1775C42.5816 12.7984 43.0975 13.5723 43.4035 14.0762C44.3463 15.6319 44.6877 17.9271 47.1968 18.7696ZM5.60354 26.9315C6.15917 28.3324 6.59838 29.101 7.50943 30.2293C7.89043 30.7007 7.94333 30.8528 8.46897 31.0261C8.7362 30.1563 8.81204 28.4081 8.33138 27.709C7.83838 26.9913 6.5922 26.8805 5.60443 26.9324L5.60354 26.9315ZM12.2631 44.2948C9.4982 40.7085 9.58992 38.597 7.32333 38.648C7.20603 40.5405 12.3998 45.9173 13.8568 46.3825C13.4519 45.6808 12.7579 44.9367 12.2631 44.2948ZM30.6683 50.2599C30.6348 49.3787 29.4301 48.6849 29.1505 48.6101C27.8761 48.2724 25.4058 50.2924 21.3074 50.1693C23.3306 50.5993 29.1858 51.1806 30.6683 50.2599ZM26.4041 8.18846C27.4898 8.68005 28.4899 9.3493 29.8728 9.36073C31.2186 9.37216 33.4244 7.86749 33.8945 7.15076C30.9276 6.60552 28.2306 6.02863 25.4613 7.59575L26.4041 8.18846ZM43.7157 16.4858C43.6505 15.4402 42.5454 13.363 42.0515 12.4018C41.5497 11.4256 41.5647 11.5021 40.6713 10.8856C40.2215 10.5752 39.3845 9.75381 38.9991 10.0871C38.544 10.4811 38.761 12.1564 38.8501 12.8573C39.0441 14.3778 42.2579 16.4559 43.7166 16.4866L43.7157 16.4858ZM18.9967 48.757C20.2023 49.8105 21.445 49.6707 23.2441 49.2802C24.3651 49.0366 26.5108 48.4984 27.3028 47.9101L23.7574 45.4811C22.9566 45.8733 22.199 46.6921 21.3956 47.2426L18.9967 48.757ZM14.8692 41.5563C14.3004 40.9038 11.3212 39.5275 10.5592 39.6268C10.4533 41.7972 14.2863 46.6033 15.5986 47.4044C15.4839 46.4072 15.1638 45.766 15.0782 44.5252C15.0086 43.5156 15.0412 42.4665 14.8692 41.5563ZM37.8958 12.8837C38.2856 11.8715 38.582 9.52692 36.8419 8.61585C35.1433 7.72763 34.2834 8.3028 32.942 9.12769C30.6277 10.5515 32.6924 11.0035 33.995 11.6041C35.0427 12.086 36.8057 13.2196 37.8958 12.8837ZM16.3129 42.3513C16.1092 43.9888 15.6453 47.8811 17.3422 48.414C18.778 48.8651 21.1601 46.1468 21.646 45.3685C21.0693 44.1312 17.8211 42.3381 16.3129 42.3513ZM45.6137 23.1782C45.6648 27.7696 44.5166 27.6069 46.6429 29.3271C47.2162 29.7905 48.2189 30.8441 48.9404 30.6735C49.1785 28.3351 49.16 24.076 48.5056 21.8749C48.2225 20.9198 46.0414 19.3439 45.4364 19.2445C45.2926 20.3192 45.5987 21.954 45.6128 23.1773L45.6137 23.1782ZM9.67899 31.8176C9.67899 32.5484 9.64547 32.2933 10.1614 32.6618C11.539 33.6477 14.6549 35.3414 16.0528 35.6571C16.3033 34.732 16.8598 32.0506 16.7178 31.1404C16.1507 30.4712 13.9555 29.6744 13.1671 29.3438C9.40736 27.7652 9.67723 28.4986 9.67899 31.8176ZM30.9452 47.9092C31.1525 48.523 32.7638 49.727 33.5664 49.6179C34.3866 49.5071 41.7552 45.5664 41.2084 44.0925C41.0523 43.6722 39.0353 42.3794 38.5202 42.353C37.4875 42.2994 36.5544 43.6722 36.0102 44.206C35.3408 44.8647 34.3654 45.6139 33.5814 46.1847C32.7744 46.7721 31.5167 47.3965 30.9452 47.9092ZM17.6685 36.052C17.7126 36.081 17.769 36.1127 17.8052 36.1312C19.4139 36.9622 25.8079 38.0149 26.9844 37.9357C28.1689 36.3273 27.6635 35.8049 26.1228 35.0644C24.6826 34.3723 20.025 31.7358 19.0576 32.3813C18.5566 32.7155 17.837 35.2482 17.6685 36.052ZM5.10614 24.1948C5.6256 24.4639 8.24761 25.2131 8.89937 24.9722C9.67283 24.6855 10.0423 22.421 10.3193 21.6515C10.7162 20.5452 11.2806 19.307 11.8239 18.3801C12.361 17.4619 13.4396 16.4603 13.0894 15.1895C12.2789 14.7498 10.7982 14.6891 9.65782 14.6847C8.04299 16.0399 5.19874 21.3877 5.10614 24.1948ZM16.7936 14.2477C17.3995 14.9697 17.3413 14.8457 18.3414 15.1957C24.2107 17.2535 22.8146 17.8111 26.3406 13.5626C27.339 12.3587 28.34 11.4397 28.4053 10.3738C27.3293 9.80132 26.1969 9.45747 25.0477 9.01073C22.5183 8.02578 22.1382 9.25607 19.0161 11.6842C18.1068 12.3903 16.8386 13.0367 16.7945 14.2477H16.7936ZM36.6831 22.8396C36.8807 23.8184 38.6023 24.5544 39.3845 25.0241C42.115 26.6624 44.2784 28.9471 44.3966 24.711C44.5633 18.7388 45.126 19.2867 42.1477 17.3819C41.5638 17.009 39.7479 15.6354 39.1253 15.82C38.4232 16.0285 36.5641 22.2468 36.6831 22.8387V22.8396ZM37.1118 16.0645C37.5766 14.2266 35.9723 13.8739 34.7041 13.268C29.5985 10.8303 30.5122 10.8285 28.0498 13.9161C24.5362 18.3229 25.4305 17.9175 28.8718 19.5936C30.1559 20.2189 31.3245 20.7342 32.5627 21.3472C34.3689 22.2416 35.0489 21.8036 35.6936 20.0043C36.1619 18.6975 36.789 17.3406 37.1118 16.0636V16.0645ZM21.9309 20.1292C22.3569 19.1179 22.0306 18.6368 21.1989 18.2728C14.6699 15.412 14.9556 15.0303 12.518 19.9401C9.41705 26.184 11.2683 26.053 13.6733 26.9764C18.8759 28.9744 17.6764 28.5637 19.9219 23.9371C20.5657 22.6101 21.4379 21.3006 21.9309 20.1292ZM39.2434 37.9515C39.9754 36.1012 43.1204 31.5986 42.7862 29.7976C42.5781 28.6789 40.5099 27.8101 39.4516 27.1857C38.6049 26.6862 36.4309 25.0232 35.4034 25.98C35.1503 26.2157 31.5653 33.6468 31.5194 33.8701C31.261 35.1321 31.9701 35.3238 32.7276 35.7442C36.43 37.8029 35.4599 37.9876 39.2443 37.9515H39.2434ZM33.285 25.8885C33.9244 23.646 31.8025 23.1747 30.3852 22.4764C24.3466 19.5013 24.3219 18.9147 22.4407 22.8748C21.7545 24.3205 21.0693 25.9017 20.5524 27.4398C19.7031 29.9682 21.5164 30.2091 23.1947 31.0191C29.3454 33.9836 28.893 34.3178 31.1022 30.1713C31.5838 29.2682 33.0601 26.68 33.2859 25.8885H33.285Z" fill="#CEAE75"/>
<path d="M13.3264 3.47104L13.8555 4.22121L13.7638 4.28013C13.6588 4.15613 13.5724 4.07432 13.5054 4.03562C13.3952 3.97494 13.284 3.94769 13.172 3.95649C13.06 3.96528 12.9365 4.0119 12.8007 4.09896L12.3368 4.39358L13.9411 6.90168C14.0707 7.10395 14.1721 7.2165 14.2489 7.23936C14.3538 7.26839 14.4693 7.24199 14.5972 7.16108L14.711 7.08899L14.7683 7.17869L13.3669 8.06953L13.3096 7.98073L13.4278 7.90507C13.568 7.81537 13.6403 7.70985 13.6465 7.58761C13.6483 7.51286 13.5918 7.38359 13.4736 7.19892L11.8694 4.69171L11.4743 4.94231C11.3208 5.03993 11.2185 5.12174 11.1683 5.18505C11.103 5.26948 11.0695 5.37235 11.065 5.49899C11.0615 5.62387 11.1012 5.7646 11.1841 5.92114L11.0924 5.98005L10.6338 5.18591L13.3272 3.4728L13.3264 3.47104ZM19.2486 5.06104L18.2952 5.49109L16.332 4.37597C16.2465 4.41906 16.1768 4.45247 16.1221 4.47709C16.1001 4.48765 16.0754 4.49733 16.0507 4.50788C16.0242 4.51844 15.9978 4.529 15.9687 4.54043L16.437 5.57461C16.5384 5.7971 16.6257 5.92465 16.6989 5.95631C16.8003 6.00379 16.9167 5.99674 17.049 5.93694L17.1875 5.8745L17.2307 5.97035L15.7058 6.65808L15.6617 6.56224L15.7949 6.50152C15.9457 6.4338 16.0304 6.3362 16.0515 6.20957C16.0639 6.14009 16.0233 6.00289 15.9316 5.80151L14.89 3.50359C14.7886 3.28022 14.7022 3.15272 14.6281 3.12194C14.5258 3.07621 14.4067 3.08324 14.2727 3.14392L14.1395 3.2046L14.0954 3.10876L15.3919 2.52391C15.7702 2.3533 16.0612 2.25482 16.265 2.22844C16.4705 2.20293 16.668 2.23634 16.8594 2.3278C17.0517 2.41926 17.1937 2.56615 17.2863 2.77017C17.3859 2.98915 17.4 3.20989 17.3304 3.43502C17.2598 3.66015 17.0914 3.87295 16.8215 4.07522L18.0192 4.75943C18.2934 4.91772 18.5086 5.00917 18.6639 5.03115C18.8191 5.0549 18.9981 5.03201 19.2027 4.96606L19.2468 5.06194L19.2486 5.06104ZM15.8937 4.37335C15.9272 4.3584 15.9554 4.34607 15.9801 4.33552C16.0048 4.32585 16.0242 4.31795 16.0401 4.31092C16.3752 4.15966 16.5957 3.97233 16.6998 3.74895C16.8039 3.5247 16.8047 3.29958 16.7015 3.07269C16.601 2.85107 16.4502 2.70156 16.25 2.62417C16.0498 2.54766 15.8355 2.56085 15.6088 2.66286C15.5083 2.70859 15.3795 2.78599 15.2234 2.89504L15.8937 4.37245V4.37335ZM21.5575 3.22658L20.082 3.56603L19.9656 4.21945C19.9365 4.38039 19.9295 4.49911 19.9462 4.57122C19.9594 4.62838 19.9991 4.67411 20.0653 4.70489C20.1296 4.73567 20.2558 4.73656 20.4419 4.70841L20.4657 4.8113L19.2653 5.08831L19.2415 4.98542C19.3941 4.92123 19.4885 4.8614 19.5246 4.80512C19.5996 4.69343 19.6622 4.48681 19.7143 4.18604L20.3298 0.752788L20.4242 0.730803L22.48 3.58449C22.645 3.81402 22.7799 3.95564 22.8848 4.01192C22.9898 4.06733 23.1194 4.08227 23.2773 4.05589L23.3011 4.15878L21.8 4.50436L21.7762 4.40148C21.9253 4.35926 22.0223 4.31088 22.0664 4.25548C22.1096 4.20008 22.1237 4.14203 22.1096 4.0796C22.0902 3.99781 22.0232 3.87648 21.9076 3.71555L21.5575 3.22744V3.22658ZM21.4235 3.04014L20.4277 1.65595L20.1243 3.34003L21.4243 3.04014H21.4235ZM26.4937 0.0149433L26.5017 0.120491C26.3658 0.156547 26.2644 0.207534 26.1992 0.277009C26.1057 0.378142 26.0263 0.529393 25.9628 0.729901L24.8613 4.13503L24.7554 4.14293L23.0436 0.905785C22.9563 0.738695 22.8945 0.637565 22.8619 0.601509C22.809 0.545226 22.7464 0.502997 22.6741 0.473976C22.6017 0.445835 22.5056 0.431766 22.3865 0.431766L22.3786 0.326261L23.9679 0.20577L23.9758 0.311318C23.7968 0.342098 23.6821 0.381637 23.6318 0.430005C23.5824 0.477494 23.5595 0.535556 23.5648 0.60503C23.5719 0.699128 23.6274 0.845988 23.7306 1.04122L24.8939 3.24153L25.6427 0.925151C25.7159 0.696502 25.7494 0.539934 25.7423 0.453751C25.7379 0.398348 25.7053 0.347343 25.648 0.301613C25.588 0.255004 25.491 0.225985 25.3587 0.215432C25.349 0.214553 25.3322 0.211909 25.3084 0.21015L25.3005 0.104646L26.4929 0.0149433H26.4937ZM28.3776 0.295473L28.2611 1.83094L29.1193 1.89603C29.3415 1.91274 29.4915 1.89073 29.5717 1.82918C29.6784 1.74915 29.7446 1.59876 29.7728 1.3789L29.8786 1.38685L29.7763 2.74114L29.6705 2.73234C29.6581 2.54151 29.6405 2.41753 29.6185 2.36125C29.5894 2.29265 29.5364 2.23548 29.4606 2.19151C29.3856 2.14754 29.2666 2.1185 29.1034 2.10618L28.2453 2.04113L28.1474 3.32243C28.1342 3.49479 28.1342 3.59945 28.1456 3.63727C28.1588 3.67596 28.1826 3.70851 28.2188 3.73225C28.255 3.75775 28.3282 3.77357 28.4349 3.78236L29.0946 3.83252C29.3133 3.84923 29.4747 3.84568 29.5761 3.82281C29.6775 3.79995 29.779 3.7472 29.876 3.66453C30.0039 3.55549 30.1388 3.38573 30.2808 3.15621L30.3981 3.16501L29.988 4.11305L26.985 3.88615L26.9929 3.7806L27.1314 3.79116C27.2231 3.7982 27.3122 3.78239 27.3977 3.74457C27.4621 3.71907 27.5071 3.67598 27.5335 3.61618C27.5609 3.55638 27.5812 3.43238 27.5953 3.24243L27.7875 0.715816C27.8061 0.469579 27.7928 0.316562 27.747 0.255882C27.6835 0.174096 27.5715 0.1275 27.4101 0.116068L27.2716 0.105505L27.2795 0L30.2834 0.226897L30.2587 1.08519L30.1476 1.07729C30.1229 0.867987 30.0894 0.722866 30.0462 0.641959C30.003 0.561052 29.9351 0.496881 29.8434 0.448512C29.7693 0.414215 29.6352 0.389585 29.4421 0.375514L28.374 0.294614L28.3776 0.295473ZM34.0123 3.82723L34.0996 3.86945L33.5325 4.82096L30.5868 4.13765L30.6106 4.03477L30.7535 4.06817C30.9149 4.10511 31.041 4.0805 31.1345 3.99256C31.1874 3.94243 31.2386 3.80963 31.2888 3.59506L31.8621 1.13882C31.9177 0.902259 31.9256 0.74836 31.8877 0.677127C31.8339 0.577753 31.7351 0.511817 31.5913 0.478399L31.4494 0.444991L31.4732 0.342063L33.1956 0.741323L33.1718 0.844251C32.9698 0.795004 32.8243 0.780912 32.7326 0.801139C32.6426 0.820486 32.5756 0.857441 32.5324 0.908447C32.4883 0.961212 32.4407 1.0984 32.3886 1.32089L31.8304 3.71379C31.7942 3.86944 31.7845 3.97849 31.8013 4.04357C31.8136 4.08842 31.8427 4.12621 31.885 4.15612C31.9265 4.18514 32.0711 4.22822 32.3163 4.28451L32.5941 4.3487C32.8869 4.41642 33.0968 4.44371 33.2247 4.42789C33.3526 4.41206 33.4778 4.36103 33.6013 4.27485C33.723 4.18866 33.8606 4.03918 34.0132 3.82723H34.0123ZM40.7803 3.49655L40.17 4.69695L40.0756 4.6486C40.1621 4.40236 40.2 4.1913 40.1903 4.01454C40.1797 3.83866 40.1215 3.67243 40.0139 3.51678C39.9081 3.362 39.7758 3.24504 39.6179 3.16501C39.4389 3.07443 39.2642 3.05423 39.0923 3.10347C38.9212 3.15272 38.7986 3.24679 38.7289 3.38486C38.6751 3.49039 38.6619 3.60649 38.691 3.73049C38.7333 3.91253 38.8982 4.21065 39.1893 4.62661C39.4265 4.96607 39.5809 5.21318 39.6532 5.36532C39.7246 5.51922 39.7617 5.67488 39.7608 5.83405C39.7608 5.99235 39.7264 6.14096 39.655 6.2799C39.5209 6.54285 39.3039 6.71787 39.0032 6.80494C38.7007 6.892 38.3894 6.85418 38.0675 6.69149C37.966 6.6396 37.8761 6.58419 37.794 6.52351C37.7447 6.48745 37.6521 6.40039 37.5118 6.26144C37.3734 6.12337 37.2808 6.04246 37.2367 6.0196C37.1934 5.99849 37.1529 5.99411 37.115 6.00642C37.077 6.02049 37.032 6.06448 36.9783 6.13923L36.8839 6.09174L37.4889 4.901L37.5833 4.94935C37.5013 5.22109 37.466 5.43832 37.4783 5.59926C37.4907 5.76195 37.5533 5.92288 37.6671 6.08294C37.7799 6.24299 37.9299 6.37051 38.1142 6.46373C38.3285 6.5719 38.5278 6.6009 38.7077 6.55077C38.8894 6.49977 39.0199 6.39778 39.0984 6.24388C39.1425 6.15857 39.1619 6.06007 39.1602 5.94926C39.1575 5.83846 39.1258 5.71973 39.0658 5.59397C39.0252 5.50867 38.8974 5.30818 38.6822 4.99071C38.4679 4.67411 38.3223 4.43402 38.2465 4.27132C38.1706 4.10863 38.1309 3.95035 38.1257 3.79821C38.1204 3.64519 38.1556 3.49654 38.2288 3.35407C38.3558 3.10432 38.5613 2.93812 38.8444 2.85545C39.1284 2.77279 39.4195 2.80624 39.7149 2.95662C39.901 3.05072 40.0739 3.19491 40.2361 3.39014C40.3111 3.4816 40.3676 3.53702 40.4072 3.55637C40.4522 3.57923 40.4954 3.5845 40.536 3.57307C40.5783 3.55988 40.6277 3.51941 40.6859 3.4473L40.7803 3.49569V3.49655ZM43.5761 5.2897C43.9879 5.58255 44.234 5.99321 44.3125 6.51998C44.3918 7.04764 44.2631 7.54543 43.9288 8.01328C43.584 8.4952 43.1465 8.78714 42.6138 8.88828C42.0829 8.99029 41.5996 8.88742 41.1675 8.57962C40.7309 8.26919 40.4743 7.85232 40.3984 7.33083C40.3226 6.80845 40.461 6.3019 40.8129 5.80855C41.1728 5.30552 41.6384 5.01708 42.209 4.94321C42.7047 4.87902 43.1607 4.99421 43.5752 5.2897H43.5761ZM43.4111 5.42513C43.128 5.22375 42.8246 5.16659 42.5027 5.25629C42.1023 5.36622 41.7204 5.67402 41.3588 6.17968C40.9884 6.69766 40.8138 7.17429 40.8359 7.61136C40.8553 7.94466 41.0026 8.21027 41.2821 8.40902C41.5802 8.62096 41.9092 8.679 42.2699 8.5849C42.6306 8.48993 42.9896 8.19267 43.3476 7.6914C43.7366 7.14792 43.9191 6.66686 43.8962 6.24826C43.8759 5.91408 43.7154 5.64057 43.412 5.42423L43.4111 5.42513ZM46.1249 11.3577L46.1787 11.4377L45.2041 11.968L43.0195 9.88291L43.0928 9.80639L43.1986 9.90751C43.3176 10.0218 43.4402 10.0641 43.5646 10.0359C43.636 10.0201 43.748 9.93129 43.9006 9.77212L45.6495 7.94994C45.818 7.77494 45.9044 7.64653 45.907 7.56563C45.9114 7.45306 45.8603 7.34578 45.7536 7.24465L45.6477 7.14352L45.7209 7.067L46.998 8.28677L46.9248 8.36329C46.7757 8.21906 46.6584 8.13196 46.5694 8.10294C46.482 8.07392 46.4053 8.07217 46.3418 8.09328C46.2774 8.11614 46.1663 8.21026 46.0076 8.37471L44.3037 10.1503C44.1934 10.2655 44.129 10.3552 44.1096 10.4194C44.0973 10.4642 44.1035 10.5108 44.1246 10.5583C44.1458 10.604 44.2481 10.7148 44.4298 10.889L44.6353 11.086C44.8522 11.2935 45.0198 11.4228 45.1371 11.4747C45.2544 11.5265 45.3893 11.5459 45.5393 11.5344C45.6883 11.5221 45.8832 11.4641 46.1222 11.3586L46.1249 11.3577ZM50.2797 12.3655L50.3652 12.3039L51.1652 13.4173L51.0787 13.4789L50.9941 13.3601C50.9041 13.2361 50.7833 13.1772 50.6316 13.1851C50.5593 13.1869 50.4358 13.2511 50.2594 13.3777L48.9726 14.2976C48.6543 14.5254 48.3853 14.6705 48.1639 14.7338C47.9434 14.7962 47.7026 14.7804 47.4451 14.6863C47.1876 14.5913 46.9451 14.3864 46.7166 14.0698C46.4688 13.7251 46.3409 13.4199 46.333 13.1552C46.3233 12.8914 46.3947 12.6487 46.5447 12.4288C46.6479 12.2793 46.8904 12.0683 47.2723 11.7956L48.5132 10.9092C48.7072 10.7702 48.8157 10.6515 48.8386 10.5548C48.8606 10.4589 48.828 10.3499 48.7425 10.2303L48.6578 10.1116L48.7442 10.05L49.7267 11.4166L49.6403 11.4782L49.553 11.3577C49.4595 11.2267 49.351 11.1633 49.2284 11.166C49.1446 11.1668 49.0132 11.2319 48.8359 11.3586L47.4522 12.3479C47.3296 12.4358 47.1955 12.5484 47.0527 12.6839C46.9107 12.8211 46.8154 12.9503 46.7687 13.0726C46.7228 13.1957 46.7114 13.3338 46.7316 13.4859C46.7546 13.6389 46.8234 13.7954 46.9398 13.9573C47.0879 14.1639 47.267 14.3169 47.4742 14.4154C47.6815 14.5148 47.879 14.5421 48.0625 14.5016C48.2468 14.4594 48.5079 14.3196 48.8448 14.0786L50.1306 13.1596C50.3282 13.018 50.4367 12.9081 50.4552 12.829C50.4799 12.7199 50.4499 12.6056 50.3635 12.4851L50.2788 12.3664L50.2797 12.3655ZM53.0481 17.0396L52.2464 17.4881L52.197 17.3905C52.3311 17.2991 52.4219 17.2217 52.4669 17.1583C52.5392 17.0554 52.578 16.9481 52.5798 16.8365C52.5824 16.7248 52.548 16.5973 52.4748 16.4539L52.227 15.9632L49.5627 17.3008C49.3475 17.409 49.2249 17.4987 49.1949 17.5717C49.1552 17.6728 49.1693 17.7907 49.2372 17.9252L49.2981 18.0448L49.2037 18.0923L48.4567 16.6113L48.5511 16.5639L48.6146 16.6896C48.6895 16.8382 48.7874 16.92 48.9092 16.9385C48.9832 16.9482 49.1182 16.9042 49.314 16.8066L51.9783 15.4698L51.7675 15.0521C51.6855 14.8894 51.615 14.7804 51.5567 14.7241C51.4782 14.6511 51.3786 14.6071 51.2534 14.5896C51.1299 14.5729 50.9852 14.5983 50.8203 14.6652L50.7709 14.5684L51.6096 14.1938L53.0454 17.0396H53.0481ZM50.3441 20.6391L50.2453 20.6778L49.6385 19.1221L49.7373 19.0834L49.7876 19.2118C49.8458 19.3631 49.9331 19.4545 50.046 19.4888C50.12 19.5099 50.2665 19.4774 50.4834 19.393L52.84 18.4792C53.0234 18.408 53.1416 18.3491 53.191 18.3033C53.228 18.2673 53.2527 18.2163 53.2624 18.1486C53.2756 18.0527 53.2642 17.963 53.2307 17.8768L53.1804 17.7484L53.2792 17.7106L53.8859 19.2663L53.7872 19.305L53.7369 19.1749C53.6787 19.0262 53.5932 18.9357 53.4803 18.9022C53.4053 18.8794 53.2598 18.911 53.0411 18.9955L50.6845 19.91C50.5002 19.9813 50.3829 20.0402 50.3335 20.0859C50.2956 20.1202 50.2718 20.173 50.2621 20.2433C50.2488 20.3366 50.2585 20.4245 50.2929 20.5116L50.3441 20.6417V20.6391ZM54.7291 21.9934C54.8429 22.4841 54.7538 22.9546 54.4627 23.4014C54.1708 23.8481 53.7439 24.1365 53.183 24.2658C52.6045 24.3995 52.0833 24.3283 51.6167 24.0521C51.151 23.7777 50.8591 23.3811 50.7392 22.8649C50.6184 22.3434 50.703 21.8624 50.9941 21.4218C51.2851 20.9803 51.7243 20.6927 52.3161 20.5564C52.9202 20.4175 53.4609 20.5089 53.938 20.8299C54.3516 21.1096 54.6162 21.4974 54.7308 21.9925L54.7291 21.9934ZM54.5157 21.9863C54.4372 21.6486 54.2484 21.4051 53.9477 21.26C53.5737 21.0779 53.0834 21.055 52.4766 21.1949C51.8557 21.3382 51.4077 21.5801 51.1334 21.9213C50.9262 22.1834 50.8609 22.4797 50.9376 22.813C51.0196 23.1692 51.2278 23.4304 51.5603 23.5983C51.8936 23.7663 52.3602 23.7804 52.9608 23.6414C53.6125 23.4911 54.0694 23.2509 54.3304 22.9229C54.5377 22.6591 54.5994 22.3478 54.5157 21.9863ZM55.1551 24.5727L55.2344 25.6166L52.4907 28.2188L54.7414 28.0482C54.9813 28.0297 55.1295 27.991 55.1842 27.933C55.2591 27.8556 55.2909 27.7395 55.2785 27.5847L55.268 27.4475L55.3738 27.4396L55.4778 28.8054L55.372 28.8133L55.3614 28.6744C55.3482 28.5073 55.29 28.3938 55.185 28.3305C55.1198 28.2927 54.9778 28.2821 54.76 28.2988L51.4765 28.5486L51.4685 28.4448L54.4116 25.6491L52.0118 25.8312C51.7719 25.8497 51.6238 25.8874 51.5673 25.9437C51.4932 26.0229 51.4615 26.1398 51.473 26.292L51.4827 26.4309L51.3768 26.4388L51.2728 25.0723L51.3786 25.0643L51.3892 25.2015C51.4015 25.3695 51.4606 25.4847 51.5664 25.5471C51.6317 25.5849 51.7728 25.5955 51.9915 25.5788L54.7009 25.3739C54.8243 25.2516 54.9046 25.1584 54.9425 25.0977C54.9795 25.0362 55.0131 24.9483 55.0413 24.8322C55.0536 24.775 55.0563 24.6906 55.0475 24.578L55.1533 24.5701L55.1551 24.5727Z" fill="#CEAE75"/>
</svg>
