<svg width="18" height="17" viewBox="0 0 18 17" fill="none" xmlns="http://www.w3.org/2000/svg">
<g clip-path="url(#clip0_2601_10841)">
<path d="M11.8527 1.94503C9.25938 -0.648343 5.03847 -0.648343 2.4451 1.94503C-0.147714 4.53897 -0.147714 8.75931 2.4451 11.3532C4.75456 13.6622 8.35144 13.9095 10.9431 12.1066C10.9977 12.3646 11.1225 12.6109 11.3232 12.8116L15.0999 16.5883C15.6503 17.1376 16.5397 17.1376 17.0873 16.5883C17.6371 16.0385 17.6371 15.1491 17.0873 14.601L13.3105 10.8231C13.1109 10.6241 12.8641 10.4987 12.6061 10.4442C14.4101 7.85194 14.1628 4.25562 11.8527 1.94503ZM10.6603 10.1608C8.72417 12.097 5.57311 12.097 3.6375 10.1608C1.70245 8.22467 1.70245 5.07417 3.6375 3.13799C5.57311 1.20238 8.72417 1.20238 10.6603 3.13799C12.5965 5.07417 12.5965 8.22467 10.6603 10.1608Z" fill="#CEAE75"/>
</g>
<defs>
<clipPath id="clip0_2601_10841">
<rect width="17" height="17" fill="white" transform="translate(0.5)"/>
</clipPath>
</defs>
</svg>
