<svg width="26" height="26" viewBox="0 0 26 26" fill="none" xmlns="http://www.w3.org/2000/svg">
<g clip-path="url(#clip0_2657_3507)">
<path d="M23.3949 0.0380859H7.22997C6.82542 0.0380859 6.49755 0.365959 6.49755 0.770508V3.94128H2.86157C2.45702 3.94128 2.12915 4.26916 2.12915 4.67371V24.3057C2.12915 24.7102 2.45702 25.0381 2.86157 25.0381H19.0265C19.4309 25.0381 19.759 24.7102 19.759 24.3057V21.1349H23.3949C23.7993 21.1349 24.1274 20.807 24.1274 20.4025V0.770508C24.1274 0.365959 23.7993 0.0380859 23.3949 0.0380859ZM22.6625 19.67H19.759V11.1472C20.6205 10.2086 21.1473 8.95799 21.1473 7.58642C21.1473 4.68 18.7828 2.31565 15.8766 2.31565C14.3833 2.31565 13.0331 2.94012 12.0731 3.94128H7.96239V1.50293H22.6625V19.67ZM3.59399 23.5732V5.40613H11.0782C10.775 6.07084 10.6058 6.80917 10.6058 7.58642C10.6058 7.84277 10.6245 8.09473 10.6601 8.34135H5.95243C5.54788 8.34135 5.22001 8.66941 5.22001 9.07377C5.22001 9.47832 5.54788 9.80619 5.95243 9.80619H11.0967C11.3756 10.4041 11.763 10.9414 12.2339 11.3922H5.95243C5.54807 11.3922 5.22001 11.7202 5.22001 12.1246C5.22001 12.5291 5.54807 12.857 5.95243 12.857H15.9357C15.9424 12.857 15.9488 12.8562 15.9553 12.856C16.797 12.8436 17.5915 12.6333 18.2941 12.269V23.5732H3.59399ZM15.8766 3.78049C17.975 3.78049 19.6823 5.48776 19.6823 7.58642C19.6823 9.68488 17.975 11.3922 15.8766 11.3922C13.7779 11.3922 12.0706 9.68488 12.0706 7.58642C12.0706 5.48776 13.7779 3.78049 15.8766 3.78049Z" fill="#CEAE75"/>
<path d="M5.95239 15.9082H15.9356C16.34 15.9082 16.6681 15.5803 16.6681 15.1758C16.6681 14.7712 16.34 14.4434 15.9356 14.4434H5.95239C5.54803 14.4434 5.21997 14.7712 5.21997 15.1758C5.21997 15.5803 5.54784 15.9082 5.95239 15.9082Z" fill="#CEAE75"/>
<path d="M18.1626 6.09396C17.8847 5.80004 17.421 5.78707 17.1271 6.06497L15.4965 7.60706L14.9079 7.02704C14.6199 6.74304 14.156 6.74647 13.872 7.03448C13.5882 7.32268 13.5916 7.78635 13.8796 8.07036L14.9718 9.14668C15.1143 9.28706 15.3 9.35744 15.486 9.35744C15.6668 9.35744 15.8478 9.29068 15.9892 9.15717L18.1336 7.12927C18.4275 6.85156 18.4405 6.38789 18.1626 6.09396Z" fill="#CEAE75"/>
<mask id="path-4-outside-1_2657_3507" maskUnits="userSpaceOnUse" x="12.6155" y="13.0381" width="15" height="15" fill="black">
<rect fill="white" x="12.6155" y="13.0381" width="15" height="15"/>
<path d="M16.9543 23.6992C16.5972 23.342 16.5134 22.8009 16.7459 22.3527L17.5836 20.7377C17.6654 20.5801 17.7705 20.4365 17.896 20.311L22.663 15.544C23.3376 14.8695 24.435 14.8695 25.1096 15.544C25.7841 16.2185 25.7841 17.316 25.1096 17.9906L20.3426 22.7576C20.2171 22.8831 20.0735 22.9882 19.9159 23.0699L18.3009 23.9077C17.8525 24.1403 17.3114 24.0563 16.9543 23.6992ZM23.4785 16.3595L18.7115 21.1265C18.6697 21.1684 18.6346 21.2162 18.6074 21.2688L17.7697 22.8838L19.3849 22.0462C19.4374 22.0189 19.4852 21.9839 19.5271 21.9421L24.294 17.175C24.5189 16.9502 24.5189 16.5844 24.294 16.3595C24.0692 16.1347 23.7034 16.1347 23.4785 16.3595Z"/>
</mask>
<path d="M16.9543 23.6992C16.5972 23.342 16.5134 22.8009 16.7459 22.3527L17.5836 20.7377C17.6654 20.5801 17.7705 20.4365 17.896 20.311L22.663 15.544C23.3376 14.8695 24.435 14.8695 25.1096 15.544C25.7841 16.2185 25.7841 17.316 25.1096 17.9906L20.3426 22.7576C20.2171 22.8831 20.0735 22.9882 19.9159 23.0699L18.3009 23.9077C17.8525 24.1403 17.3114 24.0563 16.9543 23.6992ZM23.4785 16.3595L18.7115 21.1265C18.6697 21.1684 18.6346 21.2162 18.6074 21.2688L17.7697 22.8838L19.3849 22.0462C19.4374 22.0189 19.4852 21.9839 19.5271 21.9421L24.294 17.175C24.5189 16.9502 24.5189 16.5844 24.294 16.3595C24.0692 16.1347 23.7034 16.1347 23.4785 16.3595Z" fill="#CEAE75"/>
<path d="M16.9543 23.6992L18.3687 22.2851L18.3685 22.2849L16.9543 23.6992ZM16.7459 22.3527L14.9705 21.4317L14.9705 21.4318L16.7459 22.3527ZM17.5836 20.7377L19.359 21.6586L19.359 21.6585L17.5836 20.7377ZM17.896 20.311L19.3101 21.7254L19.3102 21.7252L17.896 20.311ZM22.663 15.544L21.2488 14.1297L21.2488 14.1298L22.663 15.544ZM25.1096 15.544L26.5238 14.1298L26.5238 14.1297L25.1096 15.544ZM25.1096 17.9906L26.5238 19.4048L26.5238 19.4048L25.1096 17.9906ZM20.3426 22.7576L18.9284 21.3433L18.9284 21.3434L20.3426 22.7576ZM19.9159 23.0699L18.9952 21.2945L18.9949 21.2946L19.9159 23.0699ZM18.3009 23.9077L17.3799 22.1323L17.3799 22.1324L18.3009 23.9077ZM23.4785 16.3595L22.0644 14.9452L22.0643 14.9453L23.4785 16.3595ZM18.7115 21.1265L20.1257 22.5407L20.1257 22.5407L18.7115 21.1265ZM18.6074 21.2688L20.3828 22.1897L20.3828 22.1896L18.6074 21.2688ZM17.7697 22.8838L15.9943 21.9628L13.0889 27.5639L18.6904 24.6592L17.7697 22.8838ZM19.3849 22.0462L20.3055 23.8217L20.3057 23.8216L19.3849 22.0462ZM19.5271 21.9421L20.9413 23.3563L20.9413 23.3563L19.5271 21.9421ZM24.294 17.175L22.8798 15.7608L22.8798 15.7608L24.294 17.175ZM24.294 16.3595L25.7084 14.9454L25.7082 14.9452L24.294 16.3595ZM18.3685 22.2849C18.6275 22.5439 18.6904 22.9474 18.5212 23.2736L14.9705 21.4318C14.3364 22.6544 14.5668 24.1402 15.5402 25.1135L18.3685 22.2849ZM18.5212 23.2736L19.359 21.6586L15.8083 19.8167L14.9705 21.4317L18.5212 23.2736ZM19.359 21.6585C19.3464 21.6829 19.3296 21.7058 19.3101 21.7254L16.482 18.8966C16.2113 19.1672 15.9844 19.4773 15.8082 19.8169L19.359 21.6585ZM19.3102 21.7252L24.0772 16.9582L21.2488 14.1298L16.4818 18.8968L19.3102 21.7252ZM24.0772 16.9582C23.9707 17.0647 23.8019 17.0647 23.6954 16.9582L26.5238 14.1297C25.0682 12.6742 22.7044 12.6742 21.2488 14.1297L24.0772 16.9582ZM23.6954 16.9582C23.5888 16.8517 23.5888 16.6829 23.6954 16.5763L26.5238 19.4048C27.9794 17.9492 27.9794 15.5853 26.5238 14.1298L23.6954 16.9582ZM23.6954 16.5763L18.9284 21.3433L21.7568 24.1718L26.5238 19.4048L23.6954 16.5763ZM18.9284 21.3434C18.9477 21.324 18.9706 21.3072 18.9952 21.2945L20.8366 24.8454C21.1764 24.6692 21.4864 24.4422 21.7568 24.1718L18.9284 21.3434ZM18.9949 21.2946L17.3799 22.1323L19.2218 25.683L20.8368 24.8453L18.9949 21.2946ZM17.3799 22.1324C17.7063 21.963 18.1098 22.0262 18.3687 22.2851L15.54 25.1133C16.5129 26.0863 17.9988 26.3175 19.2219 25.683L17.3799 22.1324ZM22.0643 14.9453L17.2973 19.7123L20.1257 22.5407L24.8927 17.7737L22.0643 14.9453ZM17.2973 19.7123C17.1104 19.8992 16.9536 20.1135 16.832 20.3479L20.3828 22.1896C20.3157 22.3189 20.229 22.4375 20.1257 22.5407L17.2973 19.7123ZM16.832 20.3478L15.9943 21.9628L19.545 23.8047L20.3828 22.1897L16.832 20.3478ZM18.6904 24.6592L20.3055 23.8217L18.4642 20.2707L16.849 21.1083L18.6904 24.6592ZM20.3057 23.8216C20.5404 23.6998 20.7546 23.5429 20.9413 23.3563L18.1128 20.5279C18.2158 20.4249 18.3343 20.338 18.464 20.2708L20.3057 23.8216ZM20.9413 23.3563L25.7083 18.5892L22.8798 15.7608L18.1128 20.5279L20.9413 23.3563ZM25.7083 18.5892C26.7142 17.5833 26.7141 15.9512 25.7084 14.9454L22.8797 17.7736C22.3237 17.2175 22.3236 16.3171 22.8798 15.7608L25.7083 18.5892ZM25.7082 14.9452C24.7024 13.9395 23.0703 13.9394 22.0644 14.9452L24.8926 17.7738C24.3364 18.33 23.436 18.3298 22.8799 17.7738L25.7082 14.9452Z" fill="#0F0F0F" mask="url(#path-4-outside-1_2657_3507)"/>
<circle cx="4.75054" cy="21.1727" r="4.48077" fill="#CEAE75" stroke="#0F0F0F"/>
<path d="M6.36008 20.5707H5.35112V19.5618C5.35112 19.2298 5.08193 18.9604 4.74979 18.9604C4.41765 18.9604 4.14846 19.2298 4.14846 19.5618V20.5707H3.13966C2.80752 20.5707 2.53833 20.8399 2.53833 21.172C2.53833 21.5041 2.80752 21.7733 3.13966 21.7733H4.14846V22.7822C4.14846 23.1142 4.41765 23.3835 4.74979 23.3835C5.08193 23.3835 5.35112 23.1142 5.35112 22.7822V21.7733H6.36008C6.69222 21.7733 6.96141 21.5041 6.96141 21.172C6.96141 20.8399 6.69222 20.5707 6.36008 20.5707Z" fill="#0F0F0F"/>
</g>
<defs>
<clipPath id="clip0_2657_3507">
<rect width="25" height="25" fill="white" transform="translate(0.615479 0.0380859)"/>
</clipPath>
</defs>
</svg>
