<svg width="25" height="26" viewBox="0 0 25 26" fill="none" xmlns="http://www.w3.org/2000/svg">
<g clip-path="url(#clip0_2612_15054)">
<path d="M24.9366 22.2821C24.8267 21.7541 24.3095 21.4152 23.7815 21.5251C23.2535 21.635 22.9146 22.1522 23.0245 22.6802C23.0878 22.9843 23.0125 23.2961 22.8177 23.5356C22.7048 23.6742 22.4534 23.907 22.0365 23.907H17.627C17.0876 23.907 16.6504 24.3442 16.6504 24.8835C16.6504 25.4229 17.0876 25.8601 17.627 25.8601H22.0365C22.9314 25.8601 23.7685 25.462 24.333 24.7678C24.9002 24.0702 25.1203 23.1642 24.9366 22.2821Z" fill="#F98725"/>
<path d="M13.4798 14.1787C16.6881 14.4742 19.6066 16.1937 21.4242 18.9046C21.7245 19.3526 22.3313 19.4723 22.7792 19.1719C23.2272 18.8715 23.3468 18.2649 23.0465 17.8169C21.444 15.427 19.117 13.6895 16.4638 12.8164C18.0808 11.604 19.1289 9.67236 19.1289 7.50049C19.1289 3.83882 16.1499 0.859863 12.4883 0.859863C8.82664 0.859863 5.84764 3.83882 5.84764 7.50049C5.84764 9.67378 6.89705 11.6065 8.51575 12.8187C7.03279 13.3069 5.64119 14.0661 4.42332 15.0678C2.19031 16.9046 0.637725 19.4666 0.0516413 22.2818C-0.13205 23.164 0.0880183 24.07 0.655303 24.7676C1.21976 25.4618 2.05682 25.8599 2.95179 25.8599H7.21482C7.75418 25.8599 8.19139 25.4227 8.19139 24.8833C8.19139 24.3439 7.75418 23.9067 7.21482 23.9067H2.95169C2.5348 23.9067 2.28333 23.6741 2.17049 23.5354C1.97571 23.2958 1.90032 22.9841 1.96365 22.6799C2.9199 18.0868 6.79666 14.6623 11.3966 14.1895C11.5479 14.1787 11.4832 14.1895 11.707 14.1787C11.9023 14.1411 11.7409 14.1411 12 14.1411C12.1953 14.1411 12.2381 14.1411 12.3906 14.1411C12.4997 14.1411 12.5859 14.1411 12.5859 14.1411C12.8789 14.1411 12.6836 14.1411 13.0742 14.1411L13.4798 14.1787ZM7.80076 7.50049C7.80076 4.91577 9.90354 2.81299 12.4883 2.81299C15.073 2.81299 17.1758 4.91577 17.1758 7.50049C17.1758 10.0072 15.198 12.0605 12.7209 12.1822C12.6435 12.1808 12.5659 12.1799 12.4883 12.1799C12.412 12.1799 12.3359 12.181 12.2598 12.1824C9.78079 12.0628 7.80076 10.0086 7.80076 7.50049Z" fill="#F98725"/>
</g>
<defs>
<clipPath id="clip0_2612_15054">
<rect width="25" height="25" fill="white" transform="translate(0 0.859863)"/>
</clipPath>
</defs>
</svg>
