<svg width="21" height="21" viewBox="0 0 21 21" fill="none" xmlns="http://www.w3.org/2000/svg">
<g clip-path="url(#clip0_2601_10853)">
<path d="M10.5002 21C11.759 21 12.8431 20.2396 13.3187 19.1543H7.68164C8.1573 20.2396 9.24138 21 10.5002 21Z" fill="#CEAE75"/>
<path d="M16.8575 10.1662V8.81836C16.8575 5.95457 14.9539 3.5273 12.3458 2.73451V1.8457C12.3458 0.827982 11.5178 0 10.5 0C9.48233 0 8.65435 0.827982 8.65435 1.8457V2.73451C6.04616 3.5273 4.14263 5.95453 4.14263 8.81836V10.1662C4.14263 12.6818 3.18376 15.0671 1.44269 16.8828C1.27207 17.0607 1.22412 17.3232 1.32083 17.55C1.41755 17.7767 1.64026 17.9238 1.88677 17.9238H19.1133C19.3598 17.9238 19.5825 17.7767 19.6792 17.55C19.7759 17.3232 19.728 17.0607 19.5574 16.8828C17.8163 15.0671 16.8575 12.6817 16.8575 10.1662ZM11.1153 2.4908C10.9128 2.47127 10.7076 2.46094 10.5 2.46094C10.2925 2.46094 10.0873 2.47127 9.88481 2.4908V1.8457C9.88481 1.50646 10.1608 1.23047 10.5 1.23047C10.8393 1.23047 11.1153 1.50646 11.1153 1.8457V2.4908Z" fill="#CEAE75"/>
<path d="M18.4979 8.81856C18.4979 9.15834 18.7733 9.4338 19.1131 9.4338C19.4529 9.4338 19.7283 9.15834 19.7283 8.81856C19.7283 6.35353 18.7684 4.03602 17.0254 2.29298C16.7851 2.05275 16.3956 2.05271 16.1553 2.29298C15.915 2.53325 15.915 2.92277 16.1553 3.16304C17.6659 4.67369 18.4979 6.68218 18.4979 8.81856Z" fill="#CEAE75"/>
<path d="M1.88672 9.43377C2.22649 9.43377 2.50195 9.15831 2.50195 8.81854C2.50195 6.6822 3.33391 4.67371 4.84452 3.16306C5.08479 2.92279 5.08479 2.53326 4.84452 2.293C4.60429 2.05273 4.21472 2.05273 3.97446 2.293C2.23141 4.03604 1.27148 6.3535 1.27148 8.81854C1.27148 9.15831 1.54695 9.43377 1.88672 9.43377Z" fill="#CEAE75"/>
</g>
<defs>
<clipPath id="clip0_2601_10853">
<rect width="21" height="21" fill="white"/>
</clipPath>
</defs>
</svg>
