<svg width="25" height="25" viewBox="0 0 25 25" fill="none" xmlns="http://www.w3.org/2000/svg">
<g clip-path="url(#clip0_2657_4518)">
<path d="M24.9999 2.30063C24.9999 1.03206 23.9678 0 22.6985 0H22.6983C21.491 0 20.3559 0.47016 19.5024 1.32389L15.4086 5.41761L5.22249 3.02085C3.27948 2.56366 1.23023 3.37218 0.123023 5.0329C0.0429152 5.15325 0 5.29459 0 5.43916C0 5.70867 0.14801 5.95663 0.385283 6.08423L9.71695 11.1091L5.13609 15.69H2.30063C1.03206 15.69 0 16.722 0 17.9916C0 18.2487 0.13504 18.4871 0.355719 18.6195L4.12119 20.8789L6.38044 24.6444C6.51281 24.8649 6.75122 24.9999 7.00852 24.9999C7.62364 24.9999 8.20157 24.7603 8.63568 24.3258C9.07055 23.8912 9.30992 23.3132 9.30992 22.6985V19.864L13.8908 15.283L18.9157 24.6148C19.0435 24.8521 19.2914 25.0001 19.5607 25.0001C19.7053 25.0001 19.8466 24.9572 19.967 24.8769C21.6277 23.7699 22.4362 21.7206 21.9792 19.7776L19.5825 9.59145L23.676 5.49772C24.5297 4.6438 24.9999 3.50874 24.9999 2.30063ZM1.87835 5.22459C2.6802 4.50094 3.80724 4.19272 4.88699 4.44658L14.1904 6.63564L10.7984 10.0277L1.87835 5.22459ZM20.5533 20.1131C20.8074 21.1928 20.499 22.3199 19.7755 23.1217L14.9722 14.2015L18.3643 10.8095L20.5533 20.1131ZM22.6403 4.46184L8.05966 19.0425C7.92214 19.18 7.84508 19.3662 7.84508 19.5605V22.6985C7.84508 22.9219 7.75811 23.1319 7.5998 23.2902C7.53266 23.3573 7.45618 23.4117 7.37321 23.4519L5.28295 19.9681C5.22116 19.8651 5.13494 19.7787 5.03176 19.7169L1.54838 17.6269C1.6838 17.3478 1.97009 17.155 2.30063 17.155H5.43955C5.63371 17.155 5.82006 17.0778 5.95739 16.9404L20.5381 2.35957C21.115 1.7826 21.8822 1.46484 22.6983 1.46484H22.6993C23.1601 1.46484 23.5351 1.83982 23.5351 2.3014C23.5351 3.11755 23.2173 3.88468 22.6403 4.46184Z" fill="#CEAE75"/>
</g>
<defs>
<clipPath id="clip0_2657_4518">
<rect width="25" height="25" fill="white"/>
</clipPath>
</defs>
</svg>
