<svg width="25" height="26" viewBox="0 0 25 26" fill="none" xmlns="http://www.w3.org/2000/svg">
<g clip-path="url(#clip0_2657_3159)">
<path d="M24.9366 22.2821C24.8267 21.7541 24.3095 21.4152 23.7815 21.5251C23.2535 21.635 22.9146 22.1522 23.0245 22.6802C23.0878 22.9843 23.0125 23.2961 22.8177 23.5356C22.7048 23.6742 22.4534 23.907 22.0365 23.907H17.627C17.0876 23.907 16.6504 24.3442 16.6504 24.8835C16.6504 25.4229 17.0876 25.8601 17.627 25.8601H22.0365C22.9314 25.8601 23.7685 25.462 24.333 24.7678C24.9002 24.0702 25.1203 23.1642 24.9366 22.2821Z" fill="#CEAE75"/>
<path d="M13.48 14.1787C16.6884 14.4742 19.6068 16.1938 21.4245 18.9046C21.7248 19.3526 22.3315 19.4723 22.7794 19.1719C23.2274 18.8715 23.347 18.2649 23.0467 17.8169C21.4443 15.427 19.1173 13.6895 16.4641 12.8164C18.081 11.604 19.1291 9.67236 19.1291 7.50049C19.1291 3.83882 16.1501 0.859863 12.4885 0.859863C8.82689 0.859863 5.84788 3.83882 5.84788 7.50049C5.84788 9.67378 6.8973 11.6065 8.516 12.8187C7.03304 13.3069 5.64144 14.0661 4.42356 15.0678C2.19056 16.9046 0.637969 19.4666 0.0518855 22.2818C-0.131806 23.164 0.0882624 24.07 0.655548 24.7676C1.22 25.4618 2.05706 25.8599 2.95203 25.8599H7.21507C7.75442 25.8599 8.19163 25.4227 8.19163 24.8833C8.19163 24.3439 7.75442 23.9067 7.21507 23.9067H2.95193C2.53504 23.9067 2.28357 23.6741 2.17073 23.5354C1.97596 23.2958 1.90057 22.9841 1.9639 22.6799C2.92015 18.0868 6.79691 14.6623 11.3969 14.1895C11.5482 14.1787 11.4834 14.1895 11.7073 14.1787C11.9026 14.1411 11.7412 14.1411 12.0002 14.1411C12.1956 14.1411 12.2383 14.1411 12.3909 14.1411C12.5 14.1411 12.5862 14.1411 12.5862 14.1411C12.8791 14.1411 12.6838 14.1411 13.0745 14.1411L13.48 14.1787ZM7.80101 7.50049C7.80101 4.91577 9.90379 2.81299 12.4885 2.81299C15.0732 2.81299 17.176 4.91577 17.176 7.50049C17.176 10.0072 15.1982 12.0605 12.7212 12.1822C12.6437 12.1808 12.5662 12.1799 12.4885 12.1799C12.4123 12.1799 12.3362 12.181 12.26 12.1824C9.78104 12.0628 7.80101 10.0086 7.80101 7.50049Z" fill="#CEAE75"/>
</g>
<defs>
<clipPath id="clip0_2657_3159">
<rect width="25" height="25" fill="white" transform="translate(0 0.859863)"/>
</clipPath>
</defs>
</svg>
