<svg width="25" height="25" viewBox="0 0 25 25" fill="none" xmlns="http://www.w3.org/2000/svg">
<path d="M8.78906 15.2344H2.92969C1.31426 15.2344 0 16.5486 0 18.1641V22.0703C0 23.6857 1.31426 25 2.92969 25H8.78906C10.4045 25 11.7188 23.6857 11.7188 22.0703V18.1641C11.7188 16.5486 10.4045 15.2344 8.78906 15.2344ZM9.76562 22.0703C9.76562 22.6088 9.32754 23.0469 8.78906 23.0469H2.92969C2.39121 23.0469 1.95312 22.6088 1.95312 22.0703V18.1641C1.95312 17.6256 2.39121 17.1875 2.92969 17.1875H8.78906C9.32754 17.1875 9.76562 17.6256 9.76562 18.1641V22.0703ZM22.0703 0H16.2109C14.5955 0 13.2812 1.31426 13.2812 2.92969V6.83594C13.2812 8.45137 14.5955 9.76562 16.2109 9.76562H22.0703C23.6857 9.76562 25 8.45137 25 6.83594V2.92969C25 1.31426 23.6857 0 22.0703 0ZM23.0469 6.83594C23.0469 7.37441 22.6088 7.8125 22.0703 7.8125H16.2109C15.6725 7.8125 15.2344 7.37441 15.2344 6.83594V2.92969C15.2344 2.39121 15.6725 1.95312 16.2109 1.95312H22.0703C22.6088 1.95312 23.0469 2.39121 23.0469 2.92969V6.83594ZM22.0703 11.3281H16.2109C14.5955 11.3281 13.2812 12.6424 13.2812 14.2578V22.0703C13.2812 23.6857 14.5955 25 16.2109 25H22.0703C23.6857 25 25 23.6857 25 22.0703V14.2578C25 12.6424 23.6857 11.3281 22.0703 11.3281ZM23.0469 22.0703C23.0469 22.6088 22.6088 23.0469 22.0703 23.0469H16.2109C15.6725 23.0469 15.2344 22.6088 15.2344 22.0703V14.2578C15.2344 13.7193 15.6725 13.2812 16.2109 13.2812H22.0703C22.6088 13.2812 23.0469 13.7193 23.0469 14.2578V22.0703ZM8.78906 0H2.92969C1.31426 0 0 1.31426 0 2.92969V10.7422C0 12.3576 1.31426 13.6719 2.92969 13.6719H8.78906C10.4045 13.6719 11.7188 12.3576 11.7188 10.7422V2.92969C11.7188 1.31426 10.4045 0 8.78906 0ZM9.76562 10.7422C9.76562 11.2807 9.32754 11.7188 8.78906 11.7188H2.92969C2.39121 11.7188 1.95312 11.2807 1.95312 10.7422V2.92969C1.95312 2.39121 2.39121 1.95312 2.92969 1.95312H8.78906C9.32754 1.95312 9.76562 2.39121 9.76562 2.92969V10.7422Z" fill="#040404"/>
<path d="M8.78906 15.2344H2.92969C1.31426 15.2344 0 16.5486 0 18.1641V22.0703C0 23.6857 1.31426 25 2.92969 25H8.78906C10.4045 25 11.7188 23.6857 11.7188 22.0703V18.1641C11.7188 16.5486 10.4045 15.2344 8.78906 15.2344ZM9.76562 22.0703C9.76562 22.6088 9.32754 23.0469 8.78906 23.0469H2.92969C2.39121 23.0469 1.95312 22.6088 1.95312 22.0703V18.1641C1.95312 17.6256 2.39121 17.1875 2.92969 17.1875H8.78906C9.32754 17.1875 9.76562 17.6256 9.76562 18.1641V22.0703ZM22.0703 0H16.2109C14.5955 0 13.2812 1.31426 13.2812 2.92969V6.83594C13.2812 8.45137 14.5955 9.76562 16.2109 9.76562H22.0703C23.6857 9.76562 25 8.45137 25 6.83594V2.92969C25 1.31426 23.6857 0 22.0703 0ZM23.0469 6.83594C23.0469 7.37441 22.6088 7.8125 22.0703 7.8125H16.2109C15.6725 7.8125 15.2344 7.37441 15.2344 6.83594V2.92969C15.2344 2.39121 15.6725 1.95312 16.2109 1.95312H22.0703C22.6088 1.95312 23.0469 2.39121 23.0469 2.92969V6.83594ZM22.0703 11.3281H16.2109C14.5955 11.3281 13.2812 12.6424 13.2812 14.2578V22.0703C13.2812 23.6857 14.5955 25 16.2109 25H22.0703C23.6857 25 25 23.6857 25 22.0703V14.2578C25 12.6424 23.6857 11.3281 22.0703 11.3281ZM23.0469 22.0703C23.0469 22.6088 22.6088 23.0469 22.0703 23.0469H16.2109C15.6725 23.0469 15.2344 22.6088 15.2344 22.0703V14.2578C15.2344 13.7193 15.6725 13.2812 16.2109 13.2812H22.0703C22.6088 13.2812 23.0469 13.7193 23.0469 14.2578V22.0703ZM8.78906 0H2.92969C1.31426 0 0 1.31426 0 2.92969V10.7422C0 12.3576 1.31426 13.6719 2.92969 13.6719H8.78906C10.4045 13.6719 11.7188 12.3576 11.7188 10.7422V2.92969C11.7188 1.31426 10.4045 0 8.78906 0ZM9.76562 10.7422C9.76562 11.2807 9.32754 11.7188 8.78906 11.7188H2.92969C2.39121 11.7188 1.95312 11.2807 1.95312 10.7422V2.92969C1.95312 2.39121 2.39121 1.95312 2.92969 1.95312H8.78906C9.32754 1.95312 9.76562 2.39121 9.76562 2.92969V10.7422Z" fill="black" fill-opacity="0.2"/>
</svg>
