<svg width="25" height="26" viewBox="0 0 25 26" fill="none" xmlns="http://www.w3.org/2000/svg">
<g clip-path="url(#clip0_2657_8251)">
<path d="M21.577 0.268555H8.22819C8.02735 0.268555 7.8349 0.348282 7.6928 0.490379L2.95571 5.22747C2.81361 5.36938 2.73389 5.56202 2.73389 5.76286V24.5113C2.73389 24.9296 3.07282 25.2686 3.4911 25.2686H21.577C21.9951 25.2686 22.3342 24.9296 22.3342 24.5113V1.02577C22.3342 0.60749 21.9951 0.268555 21.577 0.268555ZM7.47098 2.85378V5.00565H5.31911L7.47098 2.85378ZM20.8197 23.7541H4.24832V6.52008H8.22819C8.64629 6.52008 8.98541 6.18095 8.98541 5.76286V1.78299H20.8197V23.7541Z" fill="#CEAE75"/>
<path d="M8.48866 8.38525C8.07057 8.38525 7.73145 8.72438 7.73145 9.14247C7.73145 9.56075 8.07057 9.89969 8.48866 9.89969H16.58C16.9981 9.89969 17.3372 9.56075 17.3372 9.14247C17.3372 8.72438 16.9981 8.38525 16.58 8.38525H8.48866Z" fill="#CEAE75"/>
<path d="M16.58 11.208H8.48866C8.07057 11.208 7.73145 11.5471 7.73145 11.9652C7.73145 12.3835 8.07057 12.7224 8.48866 12.7224H16.58C16.9981 12.7224 17.3372 12.3835 17.3372 11.9652C17.3372 11.5471 16.9981 11.208 16.58 11.208Z" fill="#CEAE75"/>
<path d="M16.58 14.0308H8.48866C8.07057 14.0308 7.73145 14.3697 7.73145 14.7878C7.73145 15.2061 8.07057 15.545 8.48866 15.545H16.58C16.9981 15.545 17.3372 15.2061 17.3372 14.7878C17.3372 14.3697 16.9981 14.0308 16.58 14.0308Z" fill="#CEAE75"/>
<path d="M14.5861 16.8535H8.48866C8.07057 16.8535 7.73145 17.1925 7.73145 17.6107C7.73145 18.0288 8.07057 18.3678 8.48866 18.3678H14.5861C15.0042 18.3678 15.3433 18.0288 15.3433 17.6107C15.3433 17.1925 15.0042 16.8535 14.5861 16.8535Z" fill="#CEAE75"/>
</g>
<defs>
<clipPath id="clip0_2657_8251">
<rect width="25" height="25" fill="white" transform="translate(0 0.268555)"/>
</clipPath>
</defs>
</svg>
