<svg width="25" height="26" viewBox="0 0 25 26" fill="none" xmlns="http://www.w3.org/2000/svg">
<path fill-rule="evenodd" clip-rule="evenodd" d="M6.25083 11.1301C6.25083 9.26311 7.72255 7.56783 9.68678 7.42986C10.4081 7.37921 10.0384 7.43219 10.6258 7.43219C10.7166 7.77218 11.1789 8.08655 11.541 8.18377C12.0358 8.3165 12.2489 7.95556 12.7915 8.65183C13.709 9.82897 14.0903 11.2454 13.4045 12.6589C11.5317 16.5169 6.25083 14.8962 6.25083 11.1301ZM22.5009 2.38014H24.1676V9.8802H22.5009V2.38014ZM20.8341 3.21323H21.6672V9.04654H20.8341V3.21323ZM10.4174 6.54671C8.98061 6.54671 8.31403 6.6777 7.166 7.51428L5.17266 8.69782C4.75932 8.92778 4.68888 9.04654 4.27146 9.04654C3.7609 9.04654 3.49019 8.68268 3.49019 8.16106C3.49019 7.71978 3.9961 7.48982 4.30115 7.30528C6.32535 6.0804 8.7134 4.82408 10.7393 3.58756C11.1125 3.35993 11.4962 3.21323 12.0841 3.21323H17.9693C19.069 3.21323 19.5609 3.77269 20.0005 3.89029V8.62971C18.4391 8.62971 19.3065 8.57906 18.3133 9.18218C17.5897 9.62114 16.1116 9.56176 15.4811 8.93069C14.3633 7.81176 14.9373 7.3699 13.8557 7.37921C13.4912 7.38271 13.1256 7.38038 12.7612 7.38038C12.4538 7.38038 11.9747 7.40716 11.7605 7.33904C11.2103 7.16439 11.1003 6.57233 11.4991 6.27426C11.8169 6.03615 13.0942 6.12988 13.6467 6.12988C14.1503 6.12988 14.6538 6.12988 15.1568 6.12988C15.6808 6.12988 16.2507 6.24457 16.2507 5.71305C16.2507 5.46097 16.086 5.29622 15.8339 5.29622H11.7191C11.403 5.29622 11.0357 5.51861 10.8569 5.68394C10.6124 5.9104 10.5018 6.18228 10.4168 6.54613L10.4174 6.54671ZM21.6678 1.96331V2.38014C20.4644 2.38014 20.001 2.2084 20.001 2.9006C19.6057 2.80862 19.115 2.38014 18.3343 2.38014H11.7721C11.1847 2.38014 10.73 2.59671 10.3435 2.82667C9.92896 3.07292 9.56161 3.26271 9.15119 3.50955L3.22822 6.9618C2.0959 7.81642 2.56397 9.93202 4.37567 9.93202C4.86818 9.93202 5.42124 9.56583 5.72979 9.35916C5.68846 9.85459 5.41717 9.73059 5.41717 11.3903C5.41717 12.082 5.62616 12.6007 5.84797 13.0949C6.13556 13.7359 6.72646 14.4421 7.27603 14.8438C8.65285 15.8509 10.503 16.0029 12.0463 15.2588C13.4109 14.601 14.584 12.9459 14.584 11.3903C14.584 10.6027 14.5659 10.1515 14.2649 9.41738C14.0164 8.81076 13.6275 8.33804 13.5943 8.21288H13.9069C14.2172 8.67686 14.471 9.25088 14.9176 9.59785C15.884 10.3483 16.3148 10.2959 17.4482 10.2959C18.1911 10.2959 18.7307 9.98325 19.2273 9.57515C19.4497 9.39235 19.4806 9.46279 20.0005 9.46279C20.0488 10.0444 20.6362 9.87962 21.6672 9.87962C21.6672 10.9508 21.5805 10.7127 24.5839 10.7127C24.8359 10.7127 25.0007 10.5479 25.0007 10.2959V1.96273C25.0007 1.71065 24.8359 1.5459 24.5839 1.5459H22.084C21.8319 1.5459 21.6672 1.71065 21.6672 1.96273L21.6678 1.96331Z" fill="#CEAE75"/>
<path fill-rule="evenodd" clip-rule="evenodd" d="M0.833663 16.5473H2.50041V24.0474H0.833663V16.5473ZM3.33349 17.3804H4.16657V23.2137H3.33349V17.3804ZM12.9171 23.2137H7.032C6.57907 23.2137 6.23443 23.1316 5.92006 22.9716C5.68719 22.8528 5.22495 22.5891 5.00023 22.5367V18.1099C5.59928 18.0965 7.08381 17.4846 7.91689 17.4846C8.31626 17.4846 8.62015 17.6011 8.91705 17.682C10.4662 18.1046 12.2849 18.5424 13.7683 18.9761C14.3784 19.1543 15.2603 19.2393 15.2603 19.9839C15.2603 20.4257 14.9017 20.817 14.4791 20.817C13.9912 20.817 9.59586 19.4628 9.11441 19.4628C8.65624 19.4628 8.53981 20.0904 8.97527 20.279C9.13129 20.3466 9.32632 20.371 9.50912 20.4222L12.7908 21.3071C13.6606 21.5255 15.0252 22.1361 15.7924 20.9846C16.0381 20.6161 16.0934 20.4764 16.0934 19.8797C16.6366 19.5921 20.2565 17.3798 20.5726 17.3798C21.1955 17.3798 21.5099 17.6139 21.5099 18.2653C21.5099 18.8376 20.2344 19.3755 19.6051 19.7458L18.0233 20.6644C16.82 21.3898 15.4653 22.1041 14.2608 22.8394C13.8876 23.067 13.5039 23.2132 12.916 23.2132L12.9171 23.2137ZM0.000582167 16.1305V24.4642C0.000582167 24.7163 0.165335 24.8811 0.417414 24.8811H2.91724C3.41266 24.8811 3.33407 24.3903 3.33407 24.048C4.66199 24.048 5.00082 24.2168 5.00082 23.4751C5.43919 23.7068 6.01728 24.048 6.66756 24.048H13.2297C14.1321 24.048 14.9995 23.3936 15.8501 22.918C16.2628 22.6875 16.6401 22.4546 17.0348 22.2275C17.8463 21.7606 21.358 19.7824 21.7736 19.4663C22.7179 18.7485 22.5211 17.1883 21.4785 16.6841C20.3921 16.159 19.7116 16.8186 18.7347 17.3647L15.782 19.0477C15.403 18.3317 14.0751 18.1908 13.0801 17.8956C12.7541 17.799 12.4019 17.7256 12.0503 17.6232C11.7004 17.5207 11.414 17.4584 11.0647 17.3589L9.01136 16.8082C7.55187 16.4216 7.31842 16.6713 5.72969 17.069C5.52186 17.1208 5.23077 17.2197 5.00023 17.2256C5.00023 16.3954 4.85353 16.5485 3.33349 16.5485C3.33349 15.4773 3.42023 15.7154 0.416832 15.7154C0.164753 15.7154 0 15.8802 0 16.1317L0.000582167 16.1305Z" fill="#CEAE75"/>
<path fill-rule="evenodd" clip-rule="evenodd" d="M9.58371 8.63012V9.04695C8.07124 9.04695 7.89077 11.1561 9.24897 11.5171C9.76302 11.6539 10.8336 11.3168 10.8336 11.9636C10.8336 12.498 9.97784 12.3804 9.63611 12.3804C8.95032 12.3804 9.398 11.5474 8.75063 11.5474C7.9583 11.5474 8.30702 13.2141 9.58371 13.2141C9.58371 13.5564 9.50512 14.0472 10.0005 14.0472C10.496 14.0472 10.4174 13.5564 10.4174 13.2141C11.9298 13.2141 12.1103 11.1049 10.7521 10.744C10.2381 10.6072 9.16746 10.9442 9.16746 10.2974C9.16746 9.7636 10.0232 9.88061 10.3656 9.88061C11.0514 9.88061 10.6037 10.7137 11.251 10.7137C12.0428 10.7137 11.6947 9.04695 10.418 9.04695C10.418 8.70405 10.4966 8.21387 10.0011 8.21387C9.74905 8.21387 9.5843 8.37862 9.5843 8.6307L9.58371 8.63012Z" fill="#CEAE75"/>
</svg>
