<svg width="26" height="26" viewBox="0 0 26 26" fill="none" xmlns="http://www.w3.org/2000/svg">
<g clip-path="url(#clip0_2657_571)">
<path d="M14.0955 13.5874C17.3038 13.8829 20.2223 15.6024 22.04 18.3133C22.3403 18.7613 22.947 18.881 23.3949 18.5806C23.8429 18.2802 23.9625 17.6736 23.6622 17.2256C22.0597 14.8357 19.7327 13.0982 17.0796 12.225C18.6965 11.0127 19.7446 9.08105 19.7446 6.90918C19.7446 3.24751 16.7656 0.268555 13.104 0.268555C9.44236 0.268555 6.46336 3.24751 6.46336 6.90918C6.46336 9.08247 7.51277 11.0152 9.13148 12.2274C7.64852 12.7156 6.25691 13.4748 5.03904 14.4765C2.80604 16.3133 1.25345 18.8753 0.667364 21.6905C0.483673 22.5727 0.703741 23.4787 1.27103 24.1763C1.83548 24.8705 2.67254 25.2686 3.56751 25.2686H7.83055C8.3699 25.2686 8.80711 24.8313 8.80711 24.292C8.80711 23.7526 8.3699 23.3154 7.83055 23.3154H3.56741C3.15052 23.3154 2.89905 23.0828 2.78621 22.944C2.59144 22.7045 2.51605 22.3928 2.57938 22.0886C3.53563 17.4955 7.41238 14.0709 12.0123 13.5981C12.1637 13.5874 12.0989 13.5981 12.3228 13.5874C12.5181 13.5498 12.3566 13.5498 12.6157 13.5498C12.811 13.5498 12.8538 13.5498 13.0063 13.5498C13.1154 13.5498 13.2017 13.5498 13.2017 13.5498C13.4946 13.5498 13.2993 13.5498 13.6899 13.5498L14.0955 13.5874ZM8.41648 6.90918C8.41648 4.32446 10.5193 2.22168 13.104 2.22168C15.6887 2.22168 17.7915 4.32446 17.7915 6.90918C17.7915 9.41587 15.8137 11.4692 13.3366 11.5909C13.2592 11.5895 13.1817 11.5886 13.104 11.5886C13.0278 11.5886 12.9516 11.5897 12.8755 11.5911C10.3965 11.4715 8.41648 9.41728 8.41648 6.90918Z" fill="#CEAE75"/>
<circle cx="20.5962" cy="21.4031" r="4.73077" fill="#CEAE75" stroke="#0F0F0F" stroke-width="1.5"/>
<path d="M22.2058 20.8011H21.1968V19.7922C21.1968 19.4603 20.9276 19.1909 20.5955 19.1909C20.2634 19.1909 19.9942 19.4603 19.9942 19.7922V20.8011H18.9854C18.6532 20.8011 18.384 21.0703 18.384 21.4025C18.384 21.7346 18.6532 22.0038 18.9854 22.0038H19.9942V23.0127C19.9942 23.3447 20.2634 23.614 20.5955 23.614C20.9276 23.614 21.1968 23.3447 21.1968 23.0127V22.0038H22.2058C22.5379 22.0038 22.8071 21.7346 22.8071 21.4025C22.8071 21.0703 22.5379 20.8011 22.2058 20.8011Z" fill="#0F0F0F"/>
</g>
<defs>
<clipPath id="clip0_2657_571">
<rect width="25" height="25" fill="white" transform="translate(0.615479 0.268555)"/>
</clipPath>
</defs>
</svg>
