<svg width="25" height="26" viewBox="0 0 25 26" fill="none" xmlns="http://www.w3.org/2000/svg">
<path d="M16.9434 15.606C17.3472 15.606 17.6758 15.9301 17.6758 16.3286H19.1406C19.1406 15.378 18.5283 14.5675 17.6758 14.2666V12.6763H16.2109V14.2671C15.3584 14.5694 14.7461 15.3835 14.7461 16.3384C14.7461 17.55 15.7318 18.5356 16.9434 18.5356C17.3472 18.5356 17.6758 18.8642 17.6758 19.2681C17.6758 19.6719 17.3472 20.0005 16.9434 20.0005C16.5395 20.0005 16.2109 19.6719 16.2109 19.2681H14.7461C14.7461 20.2229 15.3584 21.037 16.2109 21.3394V22.9204H17.6758V21.3394C18.5283 21.037 19.1406 20.2229 19.1406 19.2681C19.1406 18.0565 18.1549 17.0708 16.9434 17.0708C16.5395 17.0708 16.2109 16.7422 16.2109 16.3384C16.2109 15.9345 16.5395 15.606 16.9434 15.606Z" fill="#CEAE75"/>
<path d="M16.9434 9.74658C16.6964 9.74658 16.4522 9.7584 16.2109 9.78022V5.25439C16.2109 3.98433 15.3053 2.83203 13.6608 2.00981C12.1777 1.26826 10.2222 0.859863 8.1543 0.859863C6.08223 0.859863 4.11099 1.26743 2.60366 2.00742C0.924707 2.83179 0 3.98486 0 5.25439V18.5356C0 19.8052 0.924707 20.9583 2.60366 21.7826C4.11099 22.5226 6.08223 22.9302 8.1543 22.9302C8.98481 22.9302 9.79722 22.8639 10.5769 22.7347C12.0521 24.6347 14.3572 25.8599 16.9434 25.8599C21.3858 25.8599 25 22.2457 25 17.8032C25 13.3608 21.3858 9.74658 16.9434 9.74658ZM3.24927 3.32236C4.54063 2.68833 6.32842 2.32471 8.1543 2.32471C12.039 2.32471 14.7461 3.8687 14.7461 5.25439C14.7461 6.64009 12.039 8.18408 8.1543 8.18408C6.32842 8.18408 4.54063 7.82046 3.24927 7.18643C2.11523 6.62969 1.46484 5.92549 1.46484 5.25439C1.46484 4.5833 2.11523 3.8791 3.24927 3.32236ZM1.46484 7.8064C1.79316 8.05723 2.17344 8.29014 2.60366 8.50137C4.11099 9.24136 6.08223 9.64893 8.1543 9.64893C10.2222 9.64893 12.1777 9.24053 13.6608 8.49897C14.069 8.29487 14.4315 8.07046 14.7461 7.82896V10.0511C13.2863 10.4654 11.9942 11.282 10.9972 12.3728C10.1048 12.5741 9.14971 12.6763 8.1543 12.6763C6.32842 12.6763 4.54063 12.3126 3.24927 11.6786C2.11523 11.1219 1.46484 10.4177 1.46484 9.74658V7.8064ZM1.46484 12.2986C1.79316 12.5494 2.17344 12.7823 2.60366 12.9936C4.11099 13.7335 6.08223 14.1411 8.1543 14.1411C8.71978 14.1411 9.27451 14.1108 9.81548 14.0513C9.33423 14.962 9.02241 15.9752 8.92227 17.0491C8.66782 17.0631 8.41128 17.0708 8.1543 17.0708C6.32842 17.0708 4.54063 16.7072 3.24927 16.0731C2.11523 15.5164 1.46484 14.8122 1.46484 14.1411V12.2986ZM8.1543 21.4653C6.32842 21.4653 4.54063 21.1017 3.24927 20.4677C2.11523 19.9109 1.46484 19.2067 1.46484 18.5356V16.6931C1.79316 16.9439 2.17344 17.1768 2.60366 17.388C4.11099 18.1281 6.08223 18.5356 8.1543 18.5356C8.40967 18.5356 8.66499 18.5292 8.91865 18.5167C9.0085 19.5356 9.28872 20.5006 9.72363 21.3759C9.21289 21.4349 8.68833 21.4653 8.1543 21.4653ZM16.9434 24.395C13.3086 24.395 10.3516 21.4379 10.3516 17.8032C10.3516 14.1685 13.3086 11.2114 16.9434 11.2114C20.5781 11.2114 23.5352 14.1685 23.5352 17.8032C23.5352 21.4379 20.5781 24.395 16.9434 24.395Z" fill="#CEAE75"/>
</svg>
