<svg width="26" height="26" viewBox="0 0 26 26" fill="none" xmlns="http://www.w3.org/2000/svg">
<g clip-path="url(#clip0_2657_3497)">
<path d="M23.3949 0.268555H7.22997C6.82542 0.268555 6.49755 0.596428 6.49755 1.00098V4.17175H2.86157C2.45702 4.17175 2.12915 4.49963 2.12915 4.90417V24.5361C2.12915 24.9407 2.45702 25.2686 2.86157 25.2686H19.0265C19.4309 25.2686 19.759 24.9407 19.759 24.5361V21.3654H23.3949C23.7993 21.3654 24.1274 21.0375 24.1274 20.6329V1.00098C24.1274 0.596428 23.7993 0.268555 23.3949 0.268555ZM22.6625 19.9005H19.759V11.3777C20.6205 10.4391 21.1473 9.18846 21.1473 7.81689C21.1473 4.91047 18.7828 2.54612 15.8766 2.54612C14.3833 2.54612 13.0331 3.17059 12.0731 4.17175H7.96239V1.7334H22.6625V19.9005ZM3.59399 23.8037V5.6366H11.0782C10.775 6.30131 10.6058 7.03964 10.6058 7.81689C10.6058 8.07323 10.6245 8.3252 10.6601 8.57182H5.95243C5.54788 8.57182 5.22001 8.89988 5.22001 9.30424C5.22001 9.70879 5.54788 10.0367 5.95243 10.0367H11.0967C11.3756 10.6346 11.763 11.1719 12.2339 11.6226H5.95243C5.54807 11.6226 5.22001 11.9507 5.22001 12.355C5.22001 12.7596 5.54807 13.0875 5.95243 13.0875H15.9357C15.9424 13.0875 15.9488 13.0867 15.9553 13.0865C16.797 13.0741 17.5915 12.8637 18.2941 12.4994V23.8037H3.59399ZM15.8766 4.01096C17.975 4.01096 19.6823 5.71823 19.6823 7.81689C19.6823 9.91535 17.975 11.6226 15.8766 11.6226C13.7779 11.6226 12.0706 9.91535 12.0706 7.81689C12.0706 5.71823 13.7779 4.01096 15.8766 4.01096Z" fill="#CEAE75"/>
<path d="M5.95239 16.1387H15.9356C16.34 16.1387 16.6681 15.8108 16.6681 15.4062C16.6681 15.0017 16.34 14.6738 15.9356 14.6738H5.95239C5.54803 14.6738 5.21997 15.0017 5.21997 15.4062C5.21997 15.8108 5.54784 16.1387 5.95239 16.1387Z" fill="#CEAE75"/>
<path d="M9.61908 20.7754H5.95239C5.54803 20.7754 5.21997 21.1035 5.21997 21.5078C5.21997 21.9124 5.54803 22.2402 5.95239 22.2402H9.61908C10.0236 22.2402 10.3515 21.9124 10.3515 21.5078C10.3515 21.1035 10.0236 20.7754 9.61908 20.7754Z" fill="#CEAE75"/>
<path d="M18.1626 6.32443C17.8847 6.03051 17.421 6.01754 17.1271 6.29544L15.4965 7.83753L14.9079 7.25751C14.6199 6.9735 14.156 6.97694 13.872 7.26495C13.5882 7.55315 13.5916 8.01682 13.8796 8.30083L14.9718 9.37714C15.1143 9.51753 15.3 9.58791 15.486 9.58791C15.6668 9.58791 15.8478 9.52115 15.9892 9.38764L18.1336 7.35974C18.4275 7.08203 18.4405 6.61836 18.1626 6.32443Z" fill="#CEAE75"/>
<mask id="path-5-outside-1_2657_3497" maskUnits="userSpaceOnUse" x="12.6155" y="13.2686" width="15" height="15" fill="black">
<rect fill="white" x="12.6155" y="13.2686" width="15" height="15"/>
<path d="M16.9543 23.9297C16.5972 23.5725 16.5134 23.0314 16.7459 22.5832L17.5836 20.9682C17.6654 20.8106 17.7705 20.667 17.896 20.5415L22.663 15.7744C23.3376 15.0999 24.435 15.0999 25.1096 15.7744C25.7841 16.449 25.7841 17.5465 25.1096 18.221L20.3426 22.988C20.2171 23.1135 20.0735 23.2187 19.9159 23.3004L18.3009 24.1382C17.8525 24.3708 17.3114 24.2867 16.9543 23.9297ZM23.4785 16.59L18.7115 21.357C18.6697 21.3988 18.6346 21.4467 18.6074 21.4992L17.7697 23.1142L19.3849 22.2767C19.4374 22.2494 19.4852 22.2144 19.5271 22.1725L24.294 17.4055C24.5189 17.1807 24.5189 16.8148 24.294 16.59C24.0692 16.3652 23.7034 16.3651 23.4785 16.59Z"/>
</mask>
<path d="M16.9543 23.9297C16.5972 23.5725 16.5134 23.0314 16.7459 22.5832L17.5836 20.9682C17.6654 20.8106 17.7705 20.667 17.896 20.5415L22.663 15.7744C23.3376 15.0999 24.435 15.0999 25.1096 15.7744C25.7841 16.449 25.7841 17.5465 25.1096 18.221L20.3426 22.988C20.2171 23.1135 20.0735 23.2187 19.9159 23.3004L18.3009 24.1382C17.8525 24.3708 17.3114 24.2867 16.9543 23.9297ZM23.4785 16.59L18.7115 21.357C18.6697 21.3988 18.6346 21.4467 18.6074 21.4992L17.7697 23.1142L19.3849 22.2767C19.4374 22.2494 19.4852 22.2144 19.5271 22.1725L24.294 17.4055C24.5189 17.1807 24.5189 16.8148 24.294 16.59C24.0692 16.3652 23.7034 16.3651 23.4785 16.59Z" fill="#CEAE75"/>
<path d="M16.9543 23.9297L18.3687 22.5156L18.3685 22.5154L16.9543 23.9297ZM16.7459 22.5832L14.9705 21.6622L14.9705 21.6623L16.7459 22.5832ZM17.5836 20.9682L19.359 21.8891L19.359 21.889L17.5836 20.9682ZM17.896 20.5415L19.3101 21.9559L19.3102 21.9557L17.896 20.5415ZM22.663 15.7744L21.2488 14.3602L21.2488 14.3602L22.663 15.7744ZM25.1096 15.7744L26.5238 14.3602L26.5238 14.3602L25.1096 15.7744ZM25.1096 18.221L26.5238 19.6352L26.5238 19.6352L25.1096 18.221ZM20.3426 22.988L18.9284 21.5738L18.9284 21.5738L20.3426 22.988ZM19.9159 23.3004L18.9952 21.5249L18.9949 21.5251L19.9159 23.3004ZM18.3009 24.1382L17.3799 22.3628L17.3799 22.3628L18.3009 24.1382ZM23.4785 16.59L22.0644 15.1757L22.0643 15.1758L23.4785 16.59ZM18.7115 21.357L20.1257 22.7712L20.1257 22.7712L18.7115 21.357ZM18.6074 21.4992L20.3828 22.4202L20.3828 22.4201L18.6074 21.4992ZM17.7697 23.1142L15.9943 22.1933L13.0889 27.7944L18.6904 24.8897L17.7697 23.1142ZM19.3849 22.2767L20.3055 24.0521L20.3057 24.0521L19.3849 22.2767ZM19.5271 22.1725L20.9413 23.5868L20.9413 23.5868L19.5271 22.1725ZM24.294 17.4055L22.8798 15.9913L22.8798 15.9913L24.294 17.4055ZM24.294 16.59L25.7084 15.1758L25.7082 15.1757L24.294 16.59ZM18.3685 22.5154C18.6275 22.7744 18.6904 23.1779 18.5212 23.504L14.9705 21.6623C14.3364 22.8848 14.5668 24.3707 15.5402 25.3439L18.3685 22.5154ZM18.5212 23.5041L19.359 21.8891L15.8083 20.0472L14.9705 21.6622L18.5212 23.5041ZM19.359 21.889C19.3464 21.9134 19.3296 21.9363 19.3101 21.9559L16.482 19.1271C16.2113 19.3977 15.9844 19.7077 15.8082 20.0473L19.359 21.889ZM19.3102 21.9557L24.0772 17.1887L21.2488 14.3602L16.4818 19.1273L19.3102 21.9557ZM24.0772 17.1887C23.9707 17.2952 23.8019 17.2952 23.6954 17.1887L26.5238 14.3602C25.0682 12.9047 22.7044 12.9047 21.2488 14.3602L24.0772 17.1887ZM23.6954 17.1887C23.5888 17.0821 23.5888 16.9133 23.6954 16.8068L26.5238 19.6352C27.9794 18.1797 27.9794 15.8158 26.5238 14.3602L23.6954 17.1887ZM23.6954 16.8068L18.9284 21.5738L21.7568 24.4022L26.5238 19.6352L23.6954 16.8068ZM18.9284 21.5738C18.9477 21.5545 18.9706 21.5377 18.9952 21.5249L20.8366 25.0759C21.1764 24.8996 21.4864 24.6726 21.7568 24.4022L18.9284 21.5738ZM18.9949 21.5251L17.3799 22.3628L19.2218 25.9135L20.8368 25.0758L18.9949 21.5251ZM17.3799 22.3628C17.7063 22.1935 18.1098 22.2567 18.3687 22.5156L15.54 25.3438C16.5129 26.3168 17.9988 26.548 19.2219 25.9135L17.3799 22.3628ZM22.0643 15.1758L17.2973 19.9428L20.1257 22.7712L24.8927 18.0042L22.0643 15.1758ZM17.2973 19.9428C17.1104 20.1297 16.9536 20.344 16.832 20.5784L20.3828 22.4201C20.3157 22.5494 20.229 22.668 20.1257 22.7712L17.2973 19.9428ZM16.832 20.5783L15.9943 22.1933L19.545 24.0352L20.3828 22.4202L16.832 20.5783ZM18.6904 24.8897L20.3055 24.0521L18.4642 20.5012L16.849 21.3388L18.6904 24.8897ZM20.3057 24.0521C20.5404 23.9303 20.7546 23.7734 20.9413 23.5868L18.1128 20.7583C18.2158 20.6554 18.3343 20.5685 18.464 20.5013L20.3057 24.0521ZM20.9413 23.5868L25.7083 18.8197L22.8798 15.9913L18.1128 20.7583L20.9413 23.5868ZM25.7083 18.8197C26.7142 17.8138 26.7141 16.1817 25.7084 15.1758L22.8797 18.0041C22.3237 17.448 22.3236 16.5476 22.8798 15.9913L25.7083 18.8197ZM25.7082 15.1757C24.7024 14.17 23.0703 14.1698 22.0644 15.1757L24.8926 18.0043C24.3364 18.5604 23.436 18.5603 22.8799 18.0043L25.7082 15.1757Z" fill="#0F0F0F" mask="url(#path-5-outside-1_2657_3497)"/>
</g>
<defs>
<clipPath id="clip0_2657_3497">
<rect width="25" height="25" fill="white" transform="translate(0.615479 0.268555)"/>
</clipPath>
</defs>
</svg>
